<?xml version="1.0" encoding="utf-8" standalone="no"?>
<!DOCTYPE svg PUBLIC "-//W3C//DTD SVG 1.1//EN"
  "http://www.w3.org/Graphics/SVG/1.1/DTD/svg11.dtd">
<!-- Created with matplotlib (http://matplotlib.org/) -->
<svg height="288pt" version="1.1" viewBox="0 0 432 288" width="432pt" xmlns="http://www.w3.org/2000/svg" xmlns:xlink="http://www.w3.org/1999/xlink">
 <defs>
  <style type="text/css">
*{stroke-linecap:butt;stroke-linejoin:round;}
  </style>
 </defs>
 <g id="figure_1">
  <g id="patch_1">
   <path d="M 0 288 
L 432 288 
L 432 0 
L 0 0 
z
" style="fill:#ffffff;"/>
  </g>
  <g id="axes_1">
   <g id="patch_2">
    <path d="M 54 230.4 
L 388.8 230.4 
L 388.8 34.56 
L 54 34.56 
z
" style="fill:#ffffff;"/>
   </g>
   <g id="matplotlib.axis_1">
    <g id="xtick_1">
     <g id="line2d_1">
      <defs>
       <path d="M 0 0 
L 0 3.5 
" id="m14eede1cfd" style="stroke:#000000;stroke-width:0.8;"/>
      </defs>
      <g>
       <use style="stroke:#000000;stroke-width:0.8;" x="68.808462" xlink:href="#m14eede1cfd" y="230.4"/>
      </g>
     </g>
     <g id="text_1">
      <!-- 2017-02-22 -->
      <defs>
       <path d="M 19.1875 8.296875 
L 53.609375 8.296875 
L 53.609375 0 
L 7.328125 0 
L 7.328125 8.296875 
Q 12.9375 14.109375 22.625 23.890625 
Q 32.328125 33.6875 34.8125 36.53125 
Q 39.546875 41.84375 41.421875 45.53125 
Q 43.3125 49.21875 43.3125 52.78125 
Q 43.3125 58.59375 39.234375 62.25 
Q 35.15625 65.921875 28.609375 65.921875 
Q 23.96875 65.921875 18.8125 64.3125 
Q 13.671875 62.703125 7.8125 59.421875 
L 7.8125 69.390625 
Q 13.765625 71.78125 18.9375 73 
Q 24.125 74.21875 28.421875 74.21875 
Q 39.75 74.21875 46.484375 68.546875 
Q 53.21875 62.890625 53.21875 53.421875 
Q 53.21875 48.921875 51.53125 44.890625 
Q 49.859375 40.875 45.40625 35.40625 
Q 44.1875 33.984375 37.640625 27.21875 
Q 31.109375 20.453125 19.1875 8.296875 
" id="DejaVuSans-32"/>
       <path d="M 31.78125 66.40625 
Q 24.171875 66.40625 20.328125 58.90625 
Q 16.5 51.421875 16.5 36.375 
Q 16.5 21.390625 20.328125 13.890625 
Q 24.171875 6.390625 31.78125 6.390625 
Q 39.453125 6.390625 43.28125 13.890625 
Q 47.125 21.390625 47.125 36.375 
Q 47.125 51.421875 43.28125 58.90625 
Q 39.453125 66.40625 31.78125 66.40625 
M 31.78125 74.21875 
Q 44.046875 74.21875 50.515625 64.515625 
Q 56.984375 54.828125 56.984375 36.375 
Q 56.984375 17.96875 50.515625 8.265625 
Q 44.046875 -1.421875 31.78125 -1.421875 
Q 19.53125 -1.421875 13.0625 8.265625 
Q 6.59375 17.96875 6.59375 36.375 
Q 6.59375 54.828125 13.0625 64.515625 
Q 19.53125 74.21875 31.78125 74.21875 
" id="DejaVuSans-30"/>
       <path d="M 12.40625 8.296875 
L 28.515625 8.296875 
L 28.515625 63.921875 
L 10.984375 60.40625 
L 10.984375 69.390625 
L 28.421875 72.90625 
L 38.28125 72.90625 
L 38.28125 8.296875 
L 54.390625 8.296875 
L 54.390625 0 
L 12.40625 0 
z
" id="DejaVuSans-31"/>
       <path d="M 8.203125 72.90625 
L 55.078125 72.90625 
L 55.078125 68.703125 
L 28.609375 0 
L 18.3125 0 
L 43.21875 64.59375 
L 8.203125 64.59375 
z
" id="DejaVuSans-37"/>
       <path d="M 4.890625 31.390625 
L 31.203125 31.390625 
L 31.203125 23.390625 
L 4.890625 23.390625 
z
" id="DejaVuSans-2d"/>
      </defs>
      <g transform="translate(17.43901 273.038252)rotate(-30)scale(0.1 -0.1)">
       <use xlink:href="#DejaVuSans-32"/>
       <use x="63.623047" xlink:href="#DejaVuSans-30"/>
       <use x="127.246094" xlink:href="#DejaVuSans-31"/>
       <use x="190.869141" xlink:href="#DejaVuSans-37"/>
       <use x="254.492188" xlink:href="#DejaVuSans-2d"/>
       <use x="290.576172" xlink:href="#DejaVuSans-30"/>
       <use x="354.199219" xlink:href="#DejaVuSans-32"/>
       <use x="417.822266" xlink:href="#DejaVuSans-2d"/>
       <use x="453.90625" xlink:href="#DejaVuSans-32"/>
       <use x="517.529297" xlink:href="#DejaVuSans-32"/>
      </g>
     </g>
    </g>
    <g id="xtick_2">
     <g id="line2d_2">
      <g>
       <use style="stroke:#000000;stroke-width:0.8;" x="115.165385" xlink:href="#m14eede1cfd" y="230.4"/>
      </g>
     </g>
     <g id="text_2">
      <!-- 2017-02-23 -->
      <defs>
       <path d="M 40.578125 39.3125 
Q 47.65625 37.796875 51.625 33 
Q 55.609375 28.21875 55.609375 21.1875 
Q 55.609375 10.40625 48.1875 4.484375 
Q 40.765625 -1.421875 27.09375 -1.421875 
Q 22.515625 -1.421875 17.65625 -0.515625 
Q 12.796875 0.390625 7.625 2.203125 
L 7.625 11.71875 
Q 11.71875 9.328125 16.59375 8.109375 
Q 21.484375 6.890625 26.8125 6.890625 
Q 36.078125 6.890625 40.9375 10.546875 
Q 45.796875 14.203125 45.796875 21.1875 
Q 45.796875 27.640625 41.28125 31.265625 
Q 36.765625 34.90625 28.71875 34.90625 
L 20.21875 34.90625 
L 20.21875 43.015625 
L 29.109375 43.015625 
Q 36.375 43.015625 40.234375 45.921875 
Q 44.09375 48.828125 44.09375 54.296875 
Q 44.09375 59.90625 40.109375 62.90625 
Q 36.140625 65.921875 28.71875 65.921875 
Q 24.65625 65.921875 20.015625 65.03125 
Q 15.375 64.15625 9.8125 62.3125 
L 9.8125 71.09375 
Q 15.4375 72.65625 20.34375 73.4375 
Q 25.25 74.21875 29.59375 74.21875 
Q 40.828125 74.21875 47.359375 69.109375 
Q 53.90625 64.015625 53.90625 55.328125 
Q 53.90625 49.265625 50.4375 45.09375 
Q 46.96875 40.921875 40.578125 39.3125 
" id="DejaVuSans-33"/>
      </defs>
      <g transform="translate(63.795933 273.038252)rotate(-30)scale(0.1 -0.1)">
       <use xlink:href="#DejaVuSans-32"/>
       <use x="63.623047" xlink:href="#DejaVuSans-30"/>
       <use x="127.246094" xlink:href="#DejaVuSans-31"/>
       <use x="190.869141" xlink:href="#DejaVuSans-37"/>
       <use x="254.492188" xlink:href="#DejaVuSans-2d"/>
       <use x="290.576172" xlink:href="#DejaVuSans-30"/>
       <use x="354.199219" xlink:href="#DejaVuSans-32"/>
       <use x="417.822266" xlink:href="#DejaVuSans-2d"/>
       <use x="453.90625" xlink:href="#DejaVuSans-32"/>
       <use x="517.529297" xlink:href="#DejaVuSans-33"/>
      </g>
     </g>
    </g>
    <g id="xtick_3">
     <g id="line2d_3">
      <g>
       <use style="stroke:#000000;stroke-width:0.8;" x="161.522308" xlink:href="#m14eede1cfd" y="230.4"/>
      </g>
     </g>
     <g id="text_3">
      <!-- 2017-02-24 -->
      <defs>
       <path d="M 37.796875 64.3125 
L 12.890625 25.390625 
L 37.796875 25.390625 
z
M 35.203125 72.90625 
L 47.609375 72.90625 
L 47.609375 25.390625 
L 58.015625 25.390625 
L 58.015625 17.1875 
L 47.609375 17.1875 
L 47.609375 0 
L 37.796875 0 
L 37.796875 17.1875 
L 4.890625 17.1875 
L 4.890625 26.703125 
z
" id="DejaVuSans-34"/>
      </defs>
      <g transform="translate(110.152856 273.038252)rotate(-30)scale(0.1 -0.1)">
       <use xlink:href="#DejaVuSans-32"/>
       <use x="63.623047" xlink:href="#DejaVuSans-30"/>
       <use x="127.246094" xlink:href="#DejaVuSans-31"/>
       <use x="190.869141" xlink:href="#DejaVuSans-37"/>
       <use x="254.492188" xlink:href="#DejaVuSans-2d"/>
       <use x="290.576172" xlink:href="#DejaVuSans-30"/>
       <use x="354.199219" xlink:href="#DejaVuSans-32"/>
       <use x="417.822266" xlink:href="#DejaVuSans-2d"/>
       <use x="453.90625" xlink:href="#DejaVuSans-32"/>
       <use x="517.529297" xlink:href="#DejaVuSans-34"/>
      </g>
     </g>
    </g>
    <g id="xtick_4">
     <g id="line2d_4">
      <g>
       <use style="stroke:#000000;stroke-width:0.8;" x="207.879231" xlink:href="#m14eede1cfd" y="230.4"/>
      </g>
     </g>
     <g id="text_4">
      <!-- 2017-02-25 -->
      <defs>
       <path d="M 10.796875 72.90625 
L 49.515625 72.90625 
L 49.515625 64.59375 
L 19.828125 64.59375 
L 19.828125 46.734375 
Q 21.96875 47.46875 24.109375 47.828125 
Q 26.265625 48.1875 28.421875 48.1875 
Q 40.625 48.1875 47.75 41.5 
Q 54.890625 34.8125 54.890625 23.390625 
Q 54.890625 11.625 47.5625 5.09375 
Q 40.234375 -1.421875 26.90625 -1.421875 
Q 22.3125 -1.421875 17.546875 -0.640625 
Q 12.796875 0.140625 7.71875 1.703125 
L 7.71875 11.625 
Q 12.109375 9.234375 16.796875 8.0625 
Q 21.484375 6.890625 26.703125 6.890625 
Q 35.15625 6.890625 40.078125 11.328125 
Q 45.015625 15.765625 45.015625 23.390625 
Q 45.015625 31 40.078125 35.4375 
Q 35.15625 39.890625 26.703125 39.890625 
Q 22.75 39.890625 18.8125 39.015625 
Q 14.890625 38.140625 10.796875 36.28125 
z
" id="DejaVuSans-35"/>
      </defs>
      <g transform="translate(156.509779 273.038252)rotate(-30)scale(0.1 -0.1)">
       <use xlink:href="#DejaVuSans-32"/>
       <use x="63.623047" xlink:href="#DejaVuSans-30"/>
       <use x="127.246094" xlink:href="#DejaVuSans-31"/>
       <use x="190.869141" xlink:href="#DejaVuSans-37"/>
       <use x="254.492188" xlink:href="#DejaVuSans-2d"/>
       <use x="290.576172" xlink:href="#DejaVuSans-30"/>
       <use x="354.199219" xlink:href="#DejaVuSans-32"/>
       <use x="417.822266" xlink:href="#DejaVuSans-2d"/>
       <use x="453.90625" xlink:href="#DejaVuSans-32"/>
       <use x="517.529297" xlink:href="#DejaVuSans-35"/>
      </g>
     </g>
    </g>
    <g id="xtick_5">
     <g id="line2d_5">
      <g>
       <use style="stroke:#000000;stroke-width:0.8;" x="254.236154" xlink:href="#m14eede1cfd" y="230.4"/>
      </g>
     </g>
     <g id="text_5">
      <!-- 2017-02-26 -->
      <defs>
       <path d="M 33.015625 40.375 
Q 26.375 40.375 22.484375 35.828125 
Q 18.609375 31.296875 18.609375 23.390625 
Q 18.609375 15.53125 22.484375 10.953125 
Q 26.375 6.390625 33.015625 6.390625 
Q 39.65625 6.390625 43.53125 10.953125 
Q 47.40625 15.53125 47.40625 23.390625 
Q 47.40625 31.296875 43.53125 35.828125 
Q 39.65625 40.375 33.015625 40.375 
M 52.59375 71.296875 
L 52.59375 62.3125 
Q 48.875 64.0625 45.09375 64.984375 
Q 41.3125 65.921875 37.59375 65.921875 
Q 27.828125 65.921875 22.671875 59.328125 
Q 17.53125 52.734375 16.796875 39.40625 
Q 19.671875 43.65625 24.015625 45.921875 
Q 28.375 48.1875 33.59375 48.1875 
Q 44.578125 48.1875 50.953125 41.515625 
Q 57.328125 34.859375 57.328125 23.390625 
Q 57.328125 12.15625 50.6875 5.359375 
Q 44.046875 -1.421875 33.015625 -1.421875 
Q 20.359375 -1.421875 13.671875 8.265625 
Q 6.984375 17.96875 6.984375 36.375 
Q 6.984375 53.65625 15.1875 63.9375 
Q 23.390625 74.21875 37.203125 74.21875 
Q 40.921875 74.21875 44.703125 73.484375 
Q 48.484375 72.75 52.59375 71.296875 
" id="DejaVuSans-36"/>
      </defs>
      <g transform="translate(202.866702 273.038252)rotate(-30)scale(0.1 -0.1)">
       <use xlink:href="#DejaVuSans-32"/>
       <use x="63.623047" xlink:href="#DejaVuSans-30"/>
       <use x="127.246094" xlink:href="#DejaVuSans-31"/>
       <use x="190.869141" xlink:href="#DejaVuSans-37"/>
       <use x="254.492188" xlink:href="#DejaVuSans-2d"/>
       <use x="290.576172" xlink:href="#DejaVuSans-30"/>
       <use x="354.199219" xlink:href="#DejaVuSans-32"/>
       <use x="417.822266" xlink:href="#DejaVuSans-2d"/>
       <use x="453.90625" xlink:href="#DejaVuSans-32"/>
       <use x="517.529297" xlink:href="#DejaVuSans-36"/>
      </g>
     </g>
    </g>
    <g id="xtick_6">
     <g id="line2d_6">
      <g>
       <use style="stroke:#000000;stroke-width:0.8;" x="300.593077" xlink:href="#m14eede1cfd" y="230.4"/>
      </g>
     </g>
     <g id="text_6">
      <!-- 2017-02-27 -->
      <g transform="translate(249.223626 273.038252)rotate(-30)scale(0.1 -0.1)">
       <use xlink:href="#DejaVuSans-32"/>
       <use x="63.623047" xlink:href="#DejaVuSans-30"/>
       <use x="127.246094" xlink:href="#DejaVuSans-31"/>
       <use x="190.869141" xlink:href="#DejaVuSans-37"/>
       <use x="254.492188" xlink:href="#DejaVuSans-2d"/>
       <use x="290.576172" xlink:href="#DejaVuSans-30"/>
       <use x="354.199219" xlink:href="#DejaVuSans-32"/>
       <use x="417.822266" xlink:href="#DejaVuSans-2d"/>
       <use x="453.90625" xlink:href="#DejaVuSans-32"/>
       <use x="517.529297" xlink:href="#DejaVuSans-37"/>
      </g>
     </g>
    </g>
    <g id="xtick_7">
     <g id="line2d_7">
      <g>
       <use style="stroke:#000000;stroke-width:0.8;" x="346.95" xlink:href="#m14eede1cfd" y="230.4"/>
      </g>
     </g>
     <g id="text_7">
      <!-- 2017-02-28 -->
      <defs>
       <path d="M 31.78125 34.625 
Q 24.75 34.625 20.71875 30.859375 
Q 16.703125 27.09375 16.703125 20.515625 
Q 16.703125 13.921875 20.71875 10.15625 
Q 24.75 6.390625 31.78125 6.390625 
Q 38.8125 6.390625 42.859375 10.171875 
Q 46.921875 13.96875 46.921875 20.515625 
Q 46.921875 27.09375 42.890625 30.859375 
Q 38.875 34.625 31.78125 34.625 
M 21.921875 38.8125 
Q 15.578125 40.375 12.03125 44.71875 
Q 8.5 49.078125 8.5 55.328125 
Q 8.5 64.0625 14.71875 69.140625 
Q 20.953125 74.21875 31.78125 74.21875 
Q 42.671875 74.21875 48.875 69.140625 
Q 55.078125 64.0625 55.078125 55.328125 
Q 55.078125 49.078125 51.53125 44.71875 
Q 48 40.375 41.703125 38.8125 
Q 48.828125 37.15625 52.796875 32.3125 
Q 56.78125 27.484375 56.78125 20.515625 
Q 56.78125 9.90625 50.3125 4.234375 
Q 43.84375 -1.421875 31.78125 -1.421875 
Q 19.734375 -1.421875 13.25 4.234375 
Q 6.78125 9.90625 6.78125 20.515625 
Q 6.78125 27.484375 10.78125 32.3125 
Q 14.796875 37.15625 21.921875 38.8125 
M 18.3125 54.390625 
Q 18.3125 48.734375 21.84375 45.5625 
Q 25.390625 42.390625 31.78125 42.390625 
Q 38.140625 42.390625 41.71875 45.5625 
Q 45.3125 48.734375 45.3125 54.390625 
Q 45.3125 60.0625 41.71875 63.234375 
Q 38.140625 66.40625 31.78125 66.40625 
Q 25.390625 66.40625 21.84375 63.234375 
Q 18.3125 60.0625 18.3125 54.390625 
" id="DejaVuSans-38"/>
      </defs>
      <g transform="translate(295.580549 273.038252)rotate(-30)scale(0.1 -0.1)">
       <use xlink:href="#DejaVuSans-32"/>
       <use x="63.623047" xlink:href="#DejaVuSans-30"/>
       <use x="127.246094" xlink:href="#DejaVuSans-31"/>
       <use x="190.869141" xlink:href="#DejaVuSans-37"/>
       <use x="254.492188" xlink:href="#DejaVuSans-2d"/>
       <use x="290.576172" xlink:href="#DejaVuSans-30"/>
       <use x="354.199219" xlink:href="#DejaVuSans-32"/>
       <use x="417.822266" xlink:href="#DejaVuSans-2d"/>
       <use x="453.90625" xlink:href="#DejaVuSans-32"/>
       <use x="517.529297" xlink:href="#DejaVuSans-38"/>
      </g>
     </g>
    </g>
   </g>
   <g id="matplotlib.axis_2">
    <g id="ytick_1">
     <g id="line2d_8">
      <defs>
       <path d="M 0 0 
L -3.5 0 
" id="m4332787830" style="stroke:#000000;stroke-width:0.8;"/>
      </defs>
      <g>
       <use style="stroke:#000000;stroke-width:0.8;" x="54" xlink:href="#m4332787830" y="228.724214"/>
      </g>
     </g>
     <g id="text_8">
      <!-- −0.3 -->
      <defs>
       <path d="M 10.59375 35.5 
L 73.1875 35.5 
L 73.1875 27.203125 
L 10.59375 27.203125 
z
" id="DejaVuSans-2212"/>
       <path d="M 10.6875 12.40625 
L 21 12.40625 
L 21 0 
L 10.6875 0 
z
" id="DejaVuSans-2e"/>
      </defs>
      <g transform="translate(22.717187 232.523432)scale(0.1 -0.1)">
       <use xlink:href="#DejaVuSans-2212"/>
       <use x="83.789062" xlink:href="#DejaVuSans-30"/>
       <use x="147.412109" xlink:href="#DejaVuSans-2e"/>
       <use x="179.199219" xlink:href="#DejaVuSans-33"/>
      </g>
     </g>
    </g>
    <g id="ytick_2">
     <g id="line2d_9">
      <g>
       <use style="stroke:#000000;stroke-width:0.8;" x="54" xlink:href="#m4332787830" y="199.20491"/>
      </g>
     </g>
     <g id="text_9">
      <!-- −0.2 -->
      <g transform="translate(22.717187 203.004128)scale(0.1 -0.1)">
       <use xlink:href="#DejaVuSans-2212"/>
       <use x="83.789062" xlink:href="#DejaVuSans-30"/>
       <use x="147.412109" xlink:href="#DejaVuSans-2e"/>
       <use x="179.199219" xlink:href="#DejaVuSans-32"/>
      </g>
     </g>
    </g>
    <g id="ytick_3">
     <g id="line2d_10">
      <g>
       <use style="stroke:#000000;stroke-width:0.8;" x="54" xlink:href="#m4332787830" y="169.685606"/>
      </g>
     </g>
     <g id="text_10">
      <!-- −0.1 -->
      <g transform="translate(22.717187 173.484825)scale(0.1 -0.1)">
       <use xlink:href="#DejaVuSans-2212"/>
       <use x="83.789062" xlink:href="#DejaVuSans-30"/>
       <use x="147.412109" xlink:href="#DejaVuSans-2e"/>
       <use x="179.199219" xlink:href="#DejaVuSans-31"/>
      </g>
     </g>
    </g>
    <g id="ytick_4">
     <g id="line2d_11">
      <g>
       <use style="stroke:#000000;stroke-width:0.8;" x="54" xlink:href="#m4332787830" y="140.166302"/>
      </g>
     </g>
     <g id="text_11">
      <!-- 0.0 -->
      <g transform="translate(31.096875 143.965521)scale(0.1 -0.1)">
       <use xlink:href="#DejaVuSans-30"/>
       <use x="63.623047" xlink:href="#DejaVuSans-2e"/>
       <use x="95.410156" xlink:href="#DejaVuSans-30"/>
      </g>
     </g>
    </g>
    <g id="ytick_5">
     <g id="line2d_12">
      <g>
       <use style="stroke:#000000;stroke-width:0.8;" x="54" xlink:href="#m4332787830" y="110.646998"/>
      </g>
     </g>
     <g id="text_12">
      <!-- 0.1 -->
      <g transform="translate(31.096875 114.446217)scale(0.1 -0.1)">
       <use xlink:href="#DejaVuSans-30"/>
       <use x="63.623047" xlink:href="#DejaVuSans-2e"/>
       <use x="95.410156" xlink:href="#DejaVuSans-31"/>
      </g>
     </g>
    </g>
    <g id="ytick_6">
     <g id="line2d_13">
      <g>
       <use style="stroke:#000000;stroke-width:0.8;" x="54" xlink:href="#m4332787830" y="81.127694"/>
      </g>
     </g>
     <g id="text_13">
      <!-- 0.2 -->
      <g transform="translate(31.096875 84.926913)scale(0.1 -0.1)">
       <use xlink:href="#DejaVuSans-30"/>
       <use x="63.623047" xlink:href="#DejaVuSans-2e"/>
       <use x="95.410156" xlink:href="#DejaVuSans-32"/>
      </g>
     </g>
    </g>
    <g id="ytick_7">
     <g id="line2d_14">
      <g>
       <use style="stroke:#000000;stroke-width:0.8;" x="54" xlink:href="#m4332787830" y="51.608391"/>
      </g>
     </g>
     <g id="text_14">
      <!-- 0.3 -->
      <g transform="translate(31.096875 55.407609)scale(0.1 -0.1)">
       <use xlink:href="#DejaVuSans-30"/>
       <use x="63.623047" xlink:href="#DejaVuSans-2e"/>
       <use x="95.410156" xlink:href="#DejaVuSans-33"/>
      </g>
     </g>
    </g>
   </g>
   <g id="line2d_15">
    <path clip-path="url(#p7b1a65fe05)" d="M 54 160.000048 
L 54.643846 157.297567 
L 55.287692 156.822627 
L 55.931538 154.050232 
L 56.575385 149.916246 
L 57.219231 150.32634 
L 59.794615 141.157149 
L 60.438462 141.77406 
L 61.082308 140.107348 
L 61.726154 139.589303 
L 62.37 136.051941 
L 73.315385 133.121495 
L 73.959231 131.256541 
L 74.603077 129.964733 
L 75.246923 127.28917 
L 75.890769 127.629547 
L 76.534615 124.777857 
L 77.178462 123.802484 
L 77.822308 121.490239 
L 78.466154 118.235338 
L 79.11 118.147483 
L 79.753846 116.989283 
L 80.397692 114.799869 
L 81.041538 113.115685 
L 81.685385 112.349882 
L 82.329231 110.949436 
L 82.973077 108.561112 
L 84.260769 105.356555 
L 84.904615 105.243735 
L 85.548462 105.844199 
L 86.192308 102.354425 
L 86.836154 99.931453 
L 87.48 98.835786 
L 88.123846 98.199279 
L 88.767692 97.375608 
L 89.411538 96.820939 
L 90.055385 99.353567 
L 90.699231 100.316049 
L 91.343077 100.723419 
L 92.630769 98.596774 
L 95.206154 91.936906 
L 95.85 92.437596 
L 96.493846 91.761087 
L 97.137692 89.981613 
L 97.781538 88.653088 
L 98.425385 88.592345 
L 100.356923 86.239643 
L 101.000769 84.408247 
L 101.644615 86.242981 
L 102.288462 86.874234 
L 102.932308 87.22092 
L 103.576154 87.882043 
L 104.22 87.443237 
L 104.863846 89.512405 
L 105.507692 89.101646 
L 106.151538 88.339938 
L 106.795385 88.045499 
L 107.439231 86.635704 
L 108.083077 87.041622 
L 109.370769 91.875358 
L 110.014615 92.607649 
L 110.658462 93.152794 
L 111.302308 95.246074 
L 111.946154 96.160758 
L 112.59 98.395439 
L 113.233846 98.827664 
L 113.877692 97.528784 
L 114.521538 97.466055 
L 115.165385 97.680611 
L 120.316154 99.103167 
L 120.96 100.388054 
L 121.603846 100.385996 
L 122.247692 102.123094 
L 122.891538 101.60755 
L 123.535385 103.452041 
L 124.823077 101.536939 
L 125.466923 101.926075 
L 126.110769 101.308315 
L 126.754615 101.546002 
L 127.398462 101.280068 
L 128.042308 101.341156 
L 128.686154 101.523084 
L 129.33 100.527277 
L 129.973846 99.900996 
L 130.617692 100.202691 
L 131.261538 101.121263 
L 131.905385 101.449772 
L 132.549231 102.44748 
L 133.193077 104.225311 
L 133.836923 105.18114 
L 134.480769 105.25728 
L 135.124615 106.935849 
L 136.412308 106.558682 
L 137.056154 105.982386 
L 137.7 104.892125 
L 138.343846 105.420908 
L 138.987692 105.097093 
L 139.631538 105.861318 
L 140.275385 106.294935 
L 140.919231 106.085056 
L 142.206923 106.883761 
L 142.850769 106.354249 
L 143.494615 108.085268 
L 144.782308 106.992331 
L 145.426154 107.887347 
L 146.07 107.496288 
L 146.713846 106.275038 
L 147.357692 106.479193 
L 148.001538 104.731377 
L 148.645385 103.305761 
L 149.289231 101.559898 
L 149.933077 103.171556 
L 150.576923 103.695544 
L 151.220769 103.162041 
L 151.864615 104.026644 
L 152.508462 103.67864 
L 153.152308 102.547921 
L 153.796154 102.911274 
L 154.44 102.745554 
L 155.083846 101.901488 
L 155.727692 102.252414 
L 156.371538 98.560557 
L 157.015385 97.613768 
L 157.659231 97.423857 
L 159.590769 97.325768 
L 160.234615 96.128102 
L 160.878462 94.481994 
L 161.522308 95.197363 
L 162.166154 94.647363 
L 166.673077 95.307409 
L 167.316923 95.565657 
L 167.960769 96.147731 
L 168.604615 95.424735 
L 169.248462 96.372254 
L 169.892308 96.606051 
L 170.536154 96.28762 
L 171.18 95.306165 
L 171.823846 95.601158 
L 173.111538 92.250389 
L 174.399231 92.609461 
L 175.043077 91.114085 
L 175.686923 90.46536 
L 176.330769 91.733401 
L 176.974615 94.826752 
L 177.618462 94.516572 
L 178.262308 94.751195 
L 178.906154 92.160224 
L 179.55 90.378697 
L 180.837692 87.759567 
L 181.481538 86.979019 
L 182.125385 85.146574 
L 182.769231 86.167766 
L 184.056923 84.955945 
L 184.700769 84.172832 
L 185.344615 82.276127 
L 185.988462 81.317849 
L 186.632308 82.842614 
L 187.92 83.55788 
L 188.563846 84.866105 
L 189.207692 86.655177 
L 189.851538 86.645606 
L 190.495385 87.09898 
L 191.139231 89.402777 
L 191.783077 89.436414 
L 192.426923 89.701852 
L 193.070769 90.369123 
L 193.714615 92.942185 
L 194.358462 94.819113 
L 195.002308 95.561687 
L 195.646154 94.508426 
L 196.29 96.809594 
L 196.933846 95.733451 
L 198.221538 94.282251 
L 199.509231 95.496197 
L 200.153077 94.92994 
L 200.796923 91.736848 
L 201.440769 90.776795 
L 202.084615 89.183283 
L 203.372308 84.271657 
L 204.016154 83.104091 
L 204.66 80.281102 
L 205.303846 79.84168 
L 205.947692 80.195773 
L 206.591538 78.997809 
L 207.235385 76.556098 
L 207.879231 79.211734 
L 208.523077 79.368095 
L 209.166923 80.780153 
L 209.810769 79.064084 
L 210.454615 77.885197 
L 211.098462 78.238313 
L 213.673846 101.757639 
L 214.317692 104.02184 
L 214.961538 104.707847 
L 215.605385 106.29687 
L 216.249231 107.543739 
L 216.893077 109.871181 
L 218.180769 113.731328 
L 218.824615 116.803878 
L 219.468462 119.266159 
L 220.112308 118.044937 
L 221.4 123.217826 
L 222.043846 122.189931 
L 222.687692 118.329448 
L 223.331538 112.85248 
L 223.975385 110.216452 
L 224.619231 108.980617 
L 225.263077 109.004629 
L 225.906923 107.981872 
L 226.550769 107.940867 
L 227.194615 108.146705 
L 227.838462 105.733021 
L 228.482308 104.018137 
L 229.126154 106.098045 
L 229.77 104.241697 
L 230.413846 103.527932 
L 231.057692 103.664975 
L 231.701538 102.618409 
L 232.345385 103.828811 
L 232.989231 103.085022 
L 233.633077 103.521451 
L 234.276923 105.676846 
L 234.920769 106.003752 
L 235.564615 108.134482 
L 236.208462 106.30729 
L 236.852308 104.880674 
L 237.496154 102.122564 
L 238.14 103.924309 
L 238.783846 109.798039 
L 239.427692 111.855106 
L 240.071538 111.754814 
L 240.715385 114.573643 
L 241.359231 116.384145 
L 242.003077 119.666264 
L 242.646923 119.815385 
L 243.290769 124.454463 
L 243.934615 126.5973 
L 244.578462 126.207329 
L 245.222308 126.926598 
L 245.866154 126.805061 
L 246.51 125.602434 
L 247.153846 125.068698 
L 247.797692 128.708367 
L 248.441538 129.347383 
L 249.085385 128.509378 
L 249.729231 128.772451 
L 250.373077 130.435776 
L 251.016923 129.170397 
L 251.660769 128.538301 
L 252.304615 128.397303 
L 252.948462 128.668768 
L 253.592308 128.267501 
L 254.236154 127.681797 
L 254.88 127.83517 
L 255.523846 125.882386 
L 256.167692 125.533787 
L 256.811538 126.371071 
L 257.455385 126.840497 
L 258.099231 124.246965 
L 258.743077 125.310113 
L 259.386923 125.327899 
L 260.674615 121.223694 
L 261.318462 121.204883 
L 261.962308 120.747794 
L 262.606154 119.143711 
L 263.25 120.207446 
L 263.893846 120.336744 
L 264.537692 121.781967 
L 265.181538 122.92518 
L 265.825385 123.148549 
L 266.469231 123.252032 
L 267.113077 122.51546 
L 267.756923 123.906892 
L 268.400769 121.607577 
L 269.044615 121.31059 
L 269.688462 118.190587 
L 270.976154 115.587002 
L 271.62 115.815844 
L 272.263846 117.926285 
L 272.907692 115.078772 
L 273.551538 114.595128 
L 274.195385 116.605766 
L 274.839231 112.527827 
L 275.483077 109.397725 
L 276.126923 107.419729 
L 276.770769 104.771785 
L 277.414615 103.609157 
L 278.058462 101.330827 
L 278.702308 101.422796 
L 279.346154 104.126894 
L 279.99 106.235106 
L 280.633846 106.194001 
L 281.277692 107.60185 
L 281.921538 108.041438 
L 282.565385 109.026435 
L 283.209231 108.446401 
L 283.853077 108.023289 
L 284.496923 106.232147 
L 285.140769 107.080596 
L 285.784615 108.676929 
L 286.428462 110.62419 
L 288.36 112.61769 
L 289.003846 114.079419 
L 289.647692 116.011076 
L 290.291538 117.058578 
L 290.935385 118.86415 
L 291.579231 118.336085 
L 292.223077 118.332087 
L 292.866923 119.071455 
L 293.510769 116.829816 
L 294.154615 117.979921 
L 294.798462 116.528672 
L 303.812308 114.519228 
L 304.456154 111.578988 
L 305.1 111.144336 
L 305.743846 109.567678 
L 306.387692 116.217779 
L 307.031538 115.399438 
L 307.675385 116.550526 
L 308.319231 115.085922 
L 308.963077 115.842432 
L 309.606923 113.12957 
L 310.250769 113.987157 
L 310.894615 115.243559 
L 311.538462 118.726481 
L 312.182308 118.873994 
L 312.826154 120.745582 
L 313.47 121.948057 
L 314.113846 120.997866 
L 314.757692 118.741151 
L 315.401538 117.073344 
L 316.689231 112.558822 
L 317.333077 111.611644 
L 317.976923 111.463373 
L 319.264615 109.099211 
L 319.908462 109.390014 
L 320.552308 108.149307 
L 321.196154 107.502278 
L 321.84 105.179654 
L 323.127692 109.69202 
L 323.771538 111.52407 
L 324.415385 111.114851 
L 325.059231 111.064824 
L 326.346923 108.782413 
L 326.990769 109.260524 
L 327.634615 108.512566 
L 328.278462 108.045132 
L 328.922308 110.434397 
L 330.21 112.327048 
L 331.497692 115.059431 
L 332.141538 114.569314 
L 332.785385 114.573344 
L 333.429231 115.737277 
L 334.073077 118.274669 
L 334.716923 117.730943 
L 335.360769 118.152932 
L 336.004615 117.894031 
L 336.648462 118.674714 
L 337.292308 118.974457 
L 337.936154 118.037782 
L 338.58 119.452891 
L 339.223846 118.977092 
L 339.867692 117.759435 
L 340.511538 117.173722 
L 341.155385 116.14847 
L 341.799231 116.688485 
L 342.443077 114.813847 
L 343.086923 116.23755 
L 343.730769 114.116397 
L 344.374615 114.569182 
L 345.018462 114.815098 
L 345.662308 116.940478 
L 346.306154 117.493943 
L 346.95 114.884185 
L 347.593846 115.836366 
L 348.237692 114.365776 
L 348.881538 111.869248 
L 349.525385 111.777772 
L 350.169231 113.699293 
L 350.813077 119.920248 
L 351.456923 122.870695 
L 352.100769 122.699535 
L 352.744615 121.514702 
L 353.388462 119.692909 
L 354.032308 118.642008 
L 354.676154 116.526415 
L 355.32 115.489593 
L 357.251538 109.876068 
L 357.895385 110.449462 
L 358.539231 108.315328 
L 359.183077 107.885487 
L 359.826923 104.92592 
L 360.470769 104.948419 
L 361.114615 105.131251 
L 363.69 101.334289 
L 364.333846 102.58117 
L 364.977692 102.708016 
L 365.621538 102.386138 
L 366.265385 106.252243 
L 367.553077 116.452772 
L 368.196923 117.939836 
L 368.840769 118.885304 
L 369.484615 119.259084 
L 370.128462 118.504401 
L 370.772308 115.760442 
L 371.416154 116.363629 
L 372.06 115.860002 
L 372.703846 114.423918 
L 373.347692 116.247272 
L 374.635385 123.181374 
L 375.279231 124.105613 
L 376.566923 130.733054 
L 377.210769 130.983671 
L 377.854615 129.803498 
L 378.498462 132.817622 
L 379.142308 134.609829 
L 379.786154 137.664922 
L 380.43 135.7587 
L 381.073846 137.91706 
L 381.717692 137.896984 
L 382.361538 139.090322 
L 383.005385 137.615992 
L 383.649231 137.776292 
L 385.580769 135.880101 
L 386.224615 139.327639 
L 387.512308 144.032839 
L 388.156154 143.368587 
L 388.8 143.909045 
L 388.8 143.909045 
" style="fill:none;stroke:#1f77b4;stroke-linecap:square;stroke-width:1.5;"/>
   </g>
   <g id="line2d_16">
    <path clip-path="url(#p7b1a65fe05)" d="M 54 120.0544 
L 54.643846 138.782839 
L 55.287692 126.971397 
L 55.931538 105.728016 
L 56.575385 126.918219 
L 57.219231 112.538967 
L 57.863077 114.095818 
L 58.506923 112.944354 
L 59.150769 109.276497 
L 60.438462 124.682509 
L 61.082308 128.097143 
L 61.726154 110.773255 
L 62.37 104.818563 
L 73.315385 82.268169 
L 73.959231 108.190117 
L 74.603077 97.119816 
L 75.246923 102.47843 
L 75.890769 100.27727 
L 76.534615 106.017071 
L 77.178462 90.161822 
L 77.822308 79.543015 
L 78.466154 95.389755 
L 79.11 92.661244 
L 79.753846 93.495507 
L 80.397692 83.064556 
L 81.041538 86.953488 
L 82.329231 73.501216 
L 82.973077 73.017359 
L 83.616923 81.06427 
L 84.260769 91.861474 
L 84.904615 109.924941 
L 85.548462 88.118982 
L 86.192308 76.26878 
L 86.836154 80.624323 
L 87.48 70.567675 
L 88.123846 63.356007 
L 88.767692 46.911119 
L 90.055385 109.227142 
L 90.699231 113.983729 
L 91.343077 101.969321 
L 91.986923 100.928025 
L 92.630769 79.904314 
L 93.274615 75.713834 
L 93.918462 82.720312 
L 94.562308 75.316379 
L 95.206154 83.900488 
L 95.85 89.761228 
L 96.493846 74.749563 
L 97.137692 63.445857 
L 97.781538 71.554615 
L 98.425385 72.716675 
L 99.069231 73.288811 
L 99.713077 70.829269 
L 100.356923 67.368141 
L 101.000769 77.618204 
L 101.644615 100.595652 
L 102.288462 99.874414 
L 102.932308 102.564228 
L 103.576154 97.616171 
L 104.22 114.765758 
L 104.863846 118.259216 
L 105.507692 98.960473 
L 106.151538 97.761184 
L 106.795385 71.151827 
L 107.439231 71.074763 
L 108.083077 76.133387 
L 108.726923 109.382175 
L 109.370769 117.679195 
L 110.014615 121.892618 
L 110.658462 127.577561 
L 111.302308 127.319872 
L 111.946154 136.044341 
L 112.59 126.615011 
L 113.233846 114.817857 
L 113.877692 110.886598 
L 114.521538 91.112897 
L 115.165385 102.26989 
L 120.316154 146.222915 
L 121.603846 120.504708 
L 122.247692 122.555455 
L 122.891538 119.276299 
L 123.535385 113.263343 
L 124.179231 109.630981 
L 124.823077 109.778698 
L 125.466923 113.397271 
L 126.110769 107.532691 
L 126.754615 109.05608 
L 127.398462 109.916155 
L 128.042308 109.859917 
L 128.686154 105.530894 
L 129.33 94.080171 
L 129.973846 98.323352 
L 130.617692 103.506311 
L 131.261538 105.30853 
L 131.905385 106.365364 
L 132.549231 122.321449 
L 133.193077 125.339072 
L 133.836923 122.897057 
L 134.480769 129.179486 
L 135.124615 141.124813 
L 135.768462 130.970463 
L 136.412308 113.756759 
L 137.056154 104.807304 
L 137.7 107.588726 
L 138.343846 103.154379 
L 138.987692 109.041655 
L 139.631538 113.472593 
L 140.275385 111.015489 
L 140.919231 111.658794 
L 141.563077 113.329251 
L 142.206923 107.347332 
L 142.850769 123.374544 
L 143.494615 125.631262 
L 144.138462 110.211968 
L 144.782308 109.97197 
L 145.426154 109.460495 
L 146.07 100.410133 
L 146.713846 101.996787 
L 147.357692 88.718119 
L 148.001538 80.559576 
L 148.645385 74.655328 
L 149.289231 93.859277 
L 149.933077 100.647676 
L 150.576923 100.416182 
L 151.220769 117.710453 
L 151.864615 95.973954 
L 153.152308 85.393663 
L 153.796154 94.731635 
L 154.44 86.766786 
L 155.083846 105.758489 
L 155.727692 81.143797 
L 156.371538 79.960742 
L 157.015385 73.068893 
L 157.659231 96.004616 
L 158.303077 98.4431 
L 158.946923 96.651673 
L 159.590769 91.3107 
L 160.234615 77.246139 
L 161.522308 87.581375 
L 162.166154 88.76101 
L 166.673077 98.288306 
L 167.316923 102.60201 
L 167.960769 95.075607 
L 168.604615 94.107172 
L 169.248462 99.525627 
L 169.892308 99.716061 
L 170.536154 90.991649 
L 171.18 88.509206 
L 171.823846 93.106807 
L 173.111538 76.212578 
L 173.755385 78.387424 
L 174.399231 73.220628 
L 175.043077 70.23122 
L 175.686923 85.181676 
L 176.974615 125.386562 
L 177.618462 118.686878 
L 178.262308 92.323254 
L 178.906154 79.304555 
L 180.837692 63.529452 
L 181.481538 53.443623 
L 182.125385 73.363074 
L 182.769231 74.776173 
L 183.413077 72.460927 
L 184.056923 75.581756 
L 185.344615 66.07232 
L 185.988462 79.255985 
L 186.632308 80.232696 
L 187.276154 77.714418 
L 187.92 91.952462 
L 188.563846 116.850927 
L 189.207692 109.114478 
L 189.851538 106.210048 
L 190.495385 113.634891 
L 191.139231 113.893574 
L 191.783077 110.368717 
L 192.426923 113.921604 
L 193.070769 119.190328 
L 193.714615 167.691066 
L 194.358462 157.054475 
L 195.002308 140.248032 
L 195.646154 134.294235 
L 196.29 116.158418 
L 196.933846 112.765338 
L 197.577692 86.795932 
L 198.865385 99.785023 
L 199.509231 93.92955 
L 200.153077 81.423977 
L 200.796923 82.139691 
L 201.440769 79.046314 
L 202.084615 71.72273 
L 202.728462 58.989997 
L 203.372308 60.29695 
L 204.016154 43.461818 
L 204.66 60.798603 
L 205.303846 71.39763 
L 205.947692 71.983735 
L 206.591538 67.570594 
L 207.235385 81.671726 
L 207.879231 83.420201 
L 208.523077 100.854914 
L 209.166923 79.435999 
L 209.810769 74.233176 
L 210.454615 75.914281 
L 211.742308 150.038987 
L 213.03 194.401104 
L 213.673846 186.83238 
L 214.961538 169.969106 
L 215.605385 151.467433 
L 216.249231 188.541675 
L 216.893077 177.206515 
L 217.536923 162.436751 
L 218.180769 191.184041 
L 218.824615 190.967712 
L 219.468462 167.275698 
L 220.756154 197.568877 
L 222.043846 133.637501 
L 222.687692 84.183868 
L 223.331538 69.948184 
L 223.975385 71.784795 
L 224.619231 80.484044 
L 225.263077 86.389036 
L 225.906923 88.581851 
L 226.550769 95.941249 
L 227.194615 83.470934 
L 227.838462 83.728402 
L 229.126154 94.514 
L 229.77 94.447897 
L 230.413846 95.622833 
L 231.057692 100.409175 
L 231.701538 92.979472 
L 232.345385 119.722591 
L 232.989231 120.718738 
L 233.633077 142.197386 
L 234.276923 127.193117 
L 234.920769 138.793991 
L 235.564615 131.613448 
L 236.208462 118.452808 
L 236.852308 91.27584 
L 237.496154 80.000012 
L 238.14 145.059012 
L 238.783846 157.296085 
L 239.427692 142.404199 
L 240.071538 146.300559 
L 240.715385 151.070772 
L 241.359231 160.101012 
L 242.003077 172.339458 
L 242.646923 195.781229 
L 243.290769 211.621633 
L 243.934615 188.967689 
L 244.578462 176.76136 
L 245.222308 169.843897 
L 245.866154 146.328159 
L 246.51 132.896203 
L 247.153846 148.475715 
L 247.797692 167.826697 
L 249.085385 146.943625 
L 249.729231 153.736871 
L 250.373077 184.775548 
L 251.016923 160.388406 
L 251.660769 153.143596 
L 252.304615 133.671262 
L 252.948462 152.64109 
L 253.592308 155.256416 
L 254.236154 137.371924 
L 254.88 126.292988 
L 255.523846 123.049786 
L 256.167692 122.464771 
L 256.811538 144.789905 
L 257.455385 122.482228 
L 258.099231 140.532298 
L 258.743077 145.812584 
L 259.386923 123.523874 
L 260.030769 117.542455 
L 260.674615 116.071495 
L 261.318462 108.267048 
L 261.962308 102.984057 
L 262.606154 104.793184 
L 263.25 124.860555 
L 263.893846 122.910481 
L 264.537692 171.044782 
L 265.181538 158.431281 
L 265.825385 148.536382 
L 266.469231 136.525063 
L 267.113077 137.773112 
L 267.756923 115.337788 
L 268.400769 104.933592 
L 269.044615 81.494673 
L 269.688462 87.380642 
L 270.332308 89.393484 
L 270.976154 90.45255 
L 271.62 99.942105 
L 272.263846 99.223778 
L 272.907692 94.237333 
L 273.551538 126.759238 
L 274.195385 90.098525 
L 274.839231 83.400656 
L 275.483077 58.497182 
L 276.126923 65.378867 
L 276.770769 60.800261 
L 277.414615 60.467969 
L 278.058462 58.448771 
L 278.702308 100.459955 
L 279.346154 109.179448 
L 280.633846 113.396898 
L 281.277692 112.580298 
L 281.921538 118.283151 
L 282.565385 117.372145 
L 283.853077 93.076458 
L 284.496923 104.112638 
L 285.140769 125.458044 
L 285.784615 130.792199 
L 286.428462 125.285402 
L 287.072308 130.216962 
L 287.716154 131.391732 
L 288.36 149.563588 
L 289.003846 164.30836 
L 289.647692 157.819772 
L 290.291538 175.303063 
L 290.935385 164.842203 
L 291.579231 149.800497 
L 292.223077 156.407091 
L 292.866923 131.436166 
L 293.510769 137.750738 
L 294.154615 124.352477 
L 294.798462 121.149843 
L 303.812308 67.886066 
L 304.456154 81.096659 
L 305.1 81.653504 
L 305.743846 144.908377 
L 306.387692 149.238493 
L 307.031538 142.862643 
L 307.675385 139.623272 
L 308.319231 153.626992 
L 308.963077 132.900218 
L 309.606923 140.492563 
L 310.250769 135.407831 
L 310.894615 173.798503 
L 311.538462 160.245793 
L 312.182308 153.728852 
L 312.826154 154.214419 
L 313.47 150.057815 
L 314.113846 129.542193 
L 314.757692 122.730117 
L 315.401538 103.163211 
L 316.689231 94.818581 
L 317.333077 102.303816 
L 317.976923 92.189924 
L 318.620769 102.606943 
L 319.264615 118.566931 
L 319.908462 96.213729 
L 320.552308 98.601925 
L 321.196154 89.447795 
L 321.84 85.564347 
L 322.483846 120.912597 
L 323.127692 122.159253 
L 323.771538 119.712467 
L 324.415385 122.064443 
L 325.059231 116.610683 
L 325.703077 92.879005 
L 326.346923 88.871006 
L 326.990769 116.98217 
L 327.634615 118.186611 
L 328.278462 139.520659 
L 328.922308 141.839437 
L 329.566154 134.638347 
L 330.21 135.161778 
L 330.853846 141.77162 
L 331.497692 144.4333 
L 332.141538 132.407218 
L 332.785385 133.431951 
L 333.429231 133.849829 
L 334.073077 130.789983 
L 334.716923 130.228846 
L 335.360769 128.102285 
L 336.004615 122.808581 
L 336.648462 116.404692 
L 337.292308 119.655972 
L 337.936154 118.859822 
L 338.58 119.018307 
L 339.223846 117.223753 
L 339.867692 102.864069 
L 340.511538 97.029563 
L 341.155385 109.972942 
L 341.799231 96.073931 
L 342.443077 109.093708 
L 343.086923 100.858175 
L 343.730769 88.137888 
L 344.374615 97.320594 
L 345.018462 117.349579 
L 345.662308 127.380002 
L 346.306154 126.431882 
L 346.95 134.234558 
L 347.593846 118.298869 
L 348.237692 95.439653 
L 348.881538 113.475503 
L 349.525385 135.882699 
L 350.169231 183.47023 
L 350.813077 198.501449 
L 351.456923 199.269323 
L 352.100769 169.014377 
L 352.744615 147.848806 
L 354.032308 113.11468 
L 354.676154 107.013869 
L 355.32 77.370708 
L 355.963846 66.727246 
L 356.607692 61.988002 
L 357.251538 88.821013 
L 357.895385 79.335667 
L 358.539231 82.853678 
L 359.183077 67.809237 
L 359.826923 74.196551 
L 360.470769 82.503531 
L 361.114615 93.591855 
L 361.758462 79.101468 
L 362.402308 81.480291 
L 363.046154 87.959718 
L 363.69 102.235892 
L 364.333846 91.671885 
L 364.977692 90.945289 
L 365.621538 103.25926 
L 366.265385 151.65167 
L 366.909231 174.563361 
L 367.553077 191.925157 
L 368.840769 151.339168 
L 369.484615 142.108928 
L 370.128462 111.697241 
L 370.772308 112.571104 
L 371.416154 108.748159 
L 372.06 93.28904 
L 372.703846 112.751451 
L 373.347692 166.345477 
L 373.991538 167.870398 
L 374.635385 197.20244 
L 375.279231 198.143002 
L 375.923077 221.498182 
L 377.210769 173.600787 
L 377.854615 187.317002 
L 378.498462 186.659761 
L 379.142308 195.560769 
L 379.786154 162.868112 
L 380.43 158.545382 
L 381.073846 161.8214 
L 381.717692 162.765836 
L 382.361538 147.279318 
L 383.005385 156.471531 
L 383.649231 154.999663 
L 385.580769 129.972888 
L 386.224615 161.713957 
L 386.868462 177.107953 
L 387.512308 166.545415 
L 388.156154 163.403689 
L 388.8 151.446561 
L 388.8 151.446561 
" style="fill:none;stroke:#ff7f0e;stroke-linecap:square;stroke-width:1.5;"/>
   </g>
   <g id="line2d_17">
    <path clip-path="url(#p7b1a65fe05)" d="M 54 136.246055 
L 54.643846 126.934359 
L 55.287692 124.256269 
L 55.931538 118.050268 
L 56.575385 107.844546 
L 57.219231 106.260161 
L 57.863077 106.171729 
L 58.506923 105.374365 
L 59.150769 102.918077 
L 59.794615 101.578693 
L 60.438462 104.599671 
L 61.082308 104.451593 
L 61.726154 104.040877 
L 62.37 98.206645 
L 73.315385 95.322175 
L 73.959231 91.828485 
L 74.603077 94.257531 
L 75.246923 95.772671 
L 75.890769 91.151431 
L 76.534615 83.401911 
L 77.178462 86.925237 
L 77.822308 81.888052 
L 78.466154 75.1188 
L 79.11 74.526497 
L 79.753846 76.172829 
L 80.397692 72.666146 
L 81.041538 72.414323 
L 81.685385 74.223924 
L 82.329231 70.956579 
L 83.616923 71.767057 
L 84.260769 71.666283 
L 84.904615 76.627577 
L 85.548462 80.428972 
L 86.192308 75.876906 
L 86.836154 73.349844 
L 87.48 71.526453 
L 88.123846 73.280142 
L 88.767692 72.70792 
L 89.411538 75.723988 
L 90.055385 85.136818 
L 90.699231 90.640108 
L 91.343077 92.017247 
L 91.986923 90.1069 
L 92.630769 89.649786 
L 94.562308 71.0549 
L 95.206154 68.961025 
L 95.85 69.488933 
L 96.493846 68.050478 
L 97.137692 70.678049 
L 97.781538 69.82526 
L 98.425385 71.87066 
L 99.069231 73.124175 
L 99.713077 71.139099 
L 100.356923 72.429851 
L 101.000769 71.594116 
L 101.644615 79.478108 
L 102.288462 81.758399 
L 102.932308 78.322084 
L 103.576154 82.295198 
L 104.22 79.417216 
L 105.507692 88.10173 
L 106.151538 85.674626 
L 106.795385 85.322832 
L 107.439231 81.094572 
L 108.083077 79.39673 
L 109.370769 98.40978 
L 110.014615 102.044856 
L 110.658462 103.002616 
L 111.302308 107.286702 
L 111.946154 108.331985 
L 112.59 112.597346 
L 113.233846 112.598899 
L 113.877692 111.340602 
L 114.521538 109.142728 
L 115.165385 106.061373 
L 120.316154 108.403843 
L 120.96 112.153427 
L 121.603846 111.632375 
L 122.891538 118.808552 
L 123.535385 117.904457 
L 124.179231 115.102014 
L 124.823077 108.709136 
L 125.466923 104.958159 
L 126.110769 103.826321 
L 126.754615 104.527272 
L 127.398462 101.977972 
L 128.042308 101.426062 
L 128.686154 101.734156 
L 129.33 100.502273 
L 129.973846 98.474003 
L 130.617692 97.135075 
L 131.261538 99.843736 
L 131.905385 100.75344 
L 132.549231 102.711003 
L 133.193077 106.852353 
L 133.836923 106.077317 
L 134.480769 105.736504 
L 135.124615 112.363684 
L 135.768462 108.890855 
L 136.412308 111.245887 
L 137.056154 106.507992 
L 137.7 104.272743 
L 138.343846 103.189491 
L 138.987692 102.829849 
L 139.631538 104.480771 
L 140.275385 104.292783 
L 140.919231 101.763318 
L 141.563077 104.495143 
L 142.206923 103.302763 
L 142.850769 101.605501 
L 143.494615 101.388649 
L 144.138462 106.072907 
L 144.782308 103.685371 
L 145.426154 106.63657 
L 146.07 107.958643 
L 146.713846 102.451379 
L 147.357692 101.018077 
L 148.001538 96.516136 
L 148.645385 90.301697 
L 149.289231 87.107959 
L 149.933077 90.825667 
L 150.576923 95.711604 
L 151.220769 95.370962 
L 151.864615 98.635815 
L 152.508462 101.302662 
L 153.152308 98.59957 
L 153.796154 99.06953 
L 154.44 100.699767 
L 155.083846 99.72345 
L 155.727692 103.007617 
L 156.371538 87.396154 
L 157.015385 82.139395 
L 157.659231 80.51524 
L 158.303077 80.251464 
L 158.946923 80.847666 
L 159.590769 85.997971 
L 160.234615 82.464609 
L 160.878462 74.385936 
L 161.522308 78.985237 
L 162.166154 76.831796 
L 166.673077 80.451392 
L 167.316923 84.81024 
L 167.960769 88.199057 
L 169.248462 93.271675 
L 169.892308 96.584479 
L 171.18 91.87876 
L 171.823846 90.895486 
L 172.467692 91.802635 
L 173.111538 89.885377 
L 173.755385 90.591903 
L 174.399231 98.923008 
L 175.043077 95.37468 
L 175.686923 94.643253 
L 176.330769 99.579849 
L 176.974615 108.352079 
L 177.618462 111.132897 
L 178.262308 112.434969 
L 178.906154 109.064747 
L 179.55 101.632554 
L 180.193846 91.65689 
L 180.837692 90.943755 
L 181.481538 90.523678 
L 182.125385 87.377915 
L 182.769231 92.967372 
L 183.413077 90.023499 
L 184.056923 91.454386 
L 184.700769 81.237218 
L 185.344615 75.041652 
L 185.988462 81.196747 
L 186.632308 82.285511 
L 187.276154 85.081143 
L 187.92 85.664348 
L 188.563846 93.502704 
L 189.207692 98.828883 
L 189.851538 97.150792 
L 191.783077 104.570498 
L 192.426923 104.476214 
L 193.070769 105.629308 
L 193.714615 105.481242 
L 194.358462 118.175185 
L 195.002308 118.131228 
L 195.646154 112.241698 
L 196.29 115.766412 
L 196.933846 110.623087 
L 197.577692 108.457899 
L 198.221538 95.120426 
L 198.865385 95.338876 
L 199.509231 99.11292 
L 200.153077 99.576475 
L 200.796923 89.963405 
L 201.440769 82.371854 
L 202.084615 77.088161 
L 203.372308 63.251518 
L 204.016154 63.881317 
L 204.66 61.082443 
L 205.303846 62.616628 
L 205.947692 60.392411 
L 206.591538 62.540319 
L 207.235385 59.727483 
L 207.879231 67.514559 
L 209.166923 75.147645 
L 209.810769 73.705695 
L 210.454615 77.148136 
L 211.098462 77.613564 
L 211.742308 95.640794 
L 212.386154 122.467881 
L 213.673846 163.245739 
L 214.317692 161.821041 
L 214.961538 157.112694 
L 215.605385 146.414085 
L 216.893077 157.593646 
L 217.536923 150.329395 
L 218.180769 152.99743 
L 218.824615 149.656667 
L 219.468462 150.673404 
L 220.112308 149.002902 
L 220.756154 147.694601 
L 221.4 155.455851 
L 222.687692 132.046679 
L 223.331538 108.036626 
L 223.975385 94.8481 
L 224.619231 92.149421 
L 225.263077 95.61757 
L 226.550769 99.698167 
L 227.194615 102.920379 
L 227.838462 92.399659 
L 228.482308 85.493482 
L 229.126154 86.029851 
L 229.77 85.608891 
L 230.413846 85.561282 
L 231.057692 85.74627 
L 231.701538 92.005183 
L 232.345385 90.863598 
L 233.633077 94.14189 
L 234.276923 105.686461 
L 234.920769 102.355375 
L 235.564615 102.462976 
L 236.208462 93.628958 
L 236.852308 87.62977 
L 237.496154 78.99711 
L 238.14 78.329725 
L 238.783846 113.77483 
L 239.427692 125.936052 
L 240.071538 131.272401 
L 240.715385 138.024258 
L 241.359231 133.325021 
L 242.003077 132.524395 
L 242.646923 135.674112 
L 243.290769 141.439317 
L 243.934615 152.798285 
L 244.578462 151.426191 
L 245.222308 147.311076 
L 245.866154 139.833499 
L 246.51 129.938142 
L 247.153846 126.83141 
L 247.797692 131.211337 
L 248.441538 126.576929 
L 249.085385 126.520436 
L 250.373077 118.351033 
L 251.016923 125.677575 
L 251.660769 124.900884 
L 252.304615 129.447504 
L 252.948462 126.509318 
L 253.592308 128.487683 
L 254.236154 124.803836 
L 254.88 123.340096 
L 255.523846 115.662645 
L 256.167692 111.792314 
L 256.811538 117.771484 
L 257.455385 125.077263 
L 258.099231 116.157051 
L 258.743077 126.753234 
L 259.386923 129.388708 
L 260.030769 123.477152 
L 260.674615 120.936012 
L 261.318462 117.198671 
L 261.962308 114.45138 
L 262.606154 113.089345 
L 263.25 109.933589 
L 263.893846 111.5012 
L 265.181538 118.501361 
L 265.825385 120.76556 
L 266.469231 122.127356 
L 267.113077 127.360201 
L 267.756923 123.180636 
L 268.400769 116.626737 
L 269.044615 119.27177 
L 269.688462 106.91191 
L 270.332308 112.509763 
L 270.976154 105.047508 
L 271.62 104.287018 
L 272.263846 105.648924 
L 272.907692 97.33808 
L 273.551538 96.826437 
L 274.195385 95.468505 
L 274.839231 88.436725 
L 275.483077 84.244434 
L 276.126923 82.527102 
L 276.770769 77.671333 
L 277.414615 75.477474 
L 278.702308 73.565981 
L 279.99 110.31108 
L 280.633846 115.26356 
L 281.277692 112.828524 
L 281.921538 106.69861 
L 282.565385 102.836089 
L 283.209231 101.448773 
L 283.853077 98.897595 
L 284.496923 93.435411 
L 285.140769 95.981068 
L 285.784615 108.582396 
L 286.428462 113.379647 
L 287.072308 111.559016 
L 287.716154 118.975772 
L 288.36 124.754048 
L 289.003846 122.933846 
L 290.291538 127.841557 
L 290.935385 130.729298 
L 291.579231 131.532984 
L 292.223077 128.206844 
L 292.866923 126.314001 
L 293.510769 119.037613 
L 294.154615 122.003996 
L 294.798462 115.375982 
L 303.812308 106.177514 
L 304.456154 96.262381 
L 305.1 94.554697 
L 305.743846 94.027774 
L 306.387692 112.759529 
L 307.031538 113.568141 
L 307.675385 112.260835 
L 308.319231 108.610717 
L 308.963077 118.618271 
L 309.606923 114.41072 
L 310.250769 122.134384 
L 310.894615 128.510589 
L 311.538462 128.886504 
L 312.182308 123.824541 
L 312.826154 126.786831 
L 313.47 127.855232 
L 314.113846 125.420382 
L 314.757692 122.232646 
L 315.401538 121.633669 
L 316.689231 107.997427 
L 317.333077 103.805473 
L 317.976923 102.5446 
L 318.620769 96.612504 
L 319.264615 87.63183 
L 319.908462 92.281672 
L 320.552308 91.854633 
L 321.196154 96.601174 
L 321.84 94.102962 
L 322.483846 101.65678 
L 323.127692 106.085593 
L 323.771538 113.171038 
L 324.415385 111.481085 
L 325.059231 119.751863 
L 326.346923 110.232098 
L 326.990769 110.286137 
L 327.634615 108.018782 
L 328.278462 107.706531 
L 328.922308 119.228488 
L 329.566154 125.883762 
L 330.21 122.893862 
L 330.853846 128.867634 
L 331.497692 129.478122 
L 332.141538 129.909218 
L 332.785385 122.10531 
L 333.429231 125.236984 
L 334.073077 126.252097 
L 334.716923 125.365675 
L 335.360769 122.52323 
L 336.004615 125.958461 
L 336.648462 130.503088 
L 337.292308 128.166339 
L 337.936154 122.545418 
L 338.58 122.067388 
L 339.867692 115.284196 
L 340.511538 113.286046 
L 341.155385 109.361935 
L 341.799231 109.770049 
L 342.443077 103.20322 
L 343.086923 105.5418 
L 343.730769 104.99611 
L 344.374615 101.165673 
L 345.018462 99.769308 
L 345.662308 102.824477 
L 346.306154 105.028914 
L 346.95 101.936027 
L 347.593846 104.135499 
L 348.237692 99.55286 
L 348.881538 90.094719 
L 349.525385 87.727052 
L 350.169231 94.47037 
L 350.813077 111.55473 
L 351.456923 119.918066 
L 352.100769 120.516125 
L 354.676154 93.913196 
L 355.32 93.225519 
L 356.607692 86.120722 
L 357.251538 83.54006 
L 357.895385 84.66527 
L 358.539231 80.75443 
L 359.183077 79.141754 
L 359.826923 72.453941 
L 360.470769 79.849135 
L 361.114615 81.013579 
L 361.758462 78.793667 
L 363.046154 76.267351 
L 363.69 77.063714 
L 364.333846 86.209858 
L 364.977692 92.182046 
L 365.621538 91.106344 
L 366.265385 97.885712 
L 366.909231 124.858971 
L 367.553077 137.984978 
L 368.196923 147.477689 
L 368.840769 151.465176 
L 369.484615 147.876397 
L 370.128462 140.673766 
L 370.772308 128.08128 
L 371.416154 124.309335 
L 372.06 123.63492 
L 372.703846 114.195201 
L 373.347692 121.632455 
L 373.991538 134.396199 
L 375.279231 149.529733 
L 375.923077 148.291795 
L 376.566923 156.255417 
L 377.210769 155.657634 
L 377.854615 151.597989 
L 378.498462 155.852119 
L 379.142308 156.677698 
L 379.786154 160.554724 
L 380.43 161.771297 
L 381.073846 168.915598 
L 381.717692 167.219815 
L 382.361538 164.480194 
L 383.005385 156.55386 
L 383.649231 158.342935 
L 385.580769 154.937669 
L 386.224615 157.749572 
L 386.868462 163.263284 
L 387.512308 166.560851 
L 388.156154 162.390304 
L 388.8 164.006225 
L 388.8 164.006225 
" style="fill:none;stroke:#2ca02c;stroke-linecap:square;stroke-width:1.5;"/>
   </g>
   <g id="patch_3">
    <path d="M 54 230.4 
L 54 34.56 
" style="fill:none;stroke:#000000;stroke-linecap:square;stroke-linejoin:miter;stroke-width:0.8;"/>
   </g>
   <g id="patch_4">
    <path d="M 388.8 230.4 
L 388.8 34.56 
" style="fill:none;stroke:#000000;stroke-linecap:square;stroke-linejoin:miter;stroke-width:0.8;"/>
   </g>
   <g id="patch_5">
    <path d="M 54 230.4 
L 388.8 230.4 
" style="fill:none;stroke:#000000;stroke-linecap:square;stroke-linejoin:miter;stroke-width:0.8;"/>
   </g>
   <g id="patch_6">
    <path d="M 54 34.56 
L 388.8 34.56 
" style="fill:none;stroke:#000000;stroke-linecap:square;stroke-linejoin:miter;stroke-width:0.8;"/>
   </g>
   <g id="text_15">
    <!-- Tesla Sentiment -->
    <defs>
     <path d="M -0.296875 72.90625 
L 61.375 72.90625 
L 61.375 64.59375 
L 35.5 64.59375 
L 35.5 0 
L 25.59375 0 
L 25.59375 64.59375 
L -0.296875 64.59375 
z
" id="DejaVuSans-54"/>
     <path d="M 56.203125 29.59375 
L 56.203125 25.203125 
L 14.890625 25.203125 
Q 15.484375 15.921875 20.484375 11.0625 
Q 25.484375 6.203125 34.421875 6.203125 
Q 39.59375 6.203125 44.453125 7.46875 
Q 49.3125 8.734375 54.109375 11.28125 
L 54.109375 2.78125 
Q 49.265625 0.734375 44.1875 -0.34375 
Q 39.109375 -1.421875 33.890625 -1.421875 
Q 20.796875 -1.421875 13.15625 6.1875 
Q 5.515625 13.8125 5.515625 26.8125 
Q 5.515625 40.234375 12.765625 48.109375 
Q 20.015625 56 32.328125 56 
Q 43.359375 56 49.78125 48.890625 
Q 56.203125 41.796875 56.203125 29.59375 
M 47.21875 32.234375 
Q 47.125 39.59375 43.09375 43.984375 
Q 39.0625 48.390625 32.421875 48.390625 
Q 24.90625 48.390625 20.390625 44.140625 
Q 15.875 39.890625 15.1875 32.171875 
z
" id="DejaVuSans-65"/>
     <path d="M 44.28125 53.078125 
L 44.28125 44.578125 
Q 40.484375 46.53125 36.375 47.5 
Q 32.28125 48.484375 27.875 48.484375 
Q 21.1875 48.484375 17.84375 46.4375 
Q 14.5 44.390625 14.5 40.28125 
Q 14.5 37.15625 16.890625 35.375 
Q 19.28125 33.59375 26.515625 31.984375 
L 29.59375 31.296875 
Q 39.15625 29.25 43.1875 25.515625 
Q 47.21875 21.78125 47.21875 15.09375 
Q 47.21875 7.46875 41.1875 3.015625 
Q 35.15625 -1.421875 24.609375 -1.421875 
Q 20.21875 -1.421875 15.453125 -0.5625 
Q 10.6875 0.296875 5.421875 2 
L 5.421875 11.28125 
Q 10.40625 8.6875 15.234375 7.390625 
Q 20.0625 6.109375 24.8125 6.109375 
Q 31.15625 6.109375 34.5625 8.28125 
Q 37.984375 10.453125 37.984375 14.40625 
Q 37.984375 18.0625 35.515625 20.015625 
Q 33.0625 21.96875 24.703125 23.78125 
L 21.578125 24.515625 
Q 13.234375 26.265625 9.515625 29.90625 
Q 5.8125 33.546875 5.8125 39.890625 
Q 5.8125 47.609375 11.28125 51.796875 
Q 16.75 56 26.8125 56 
Q 31.78125 56 36.171875 55.265625 
Q 40.578125 54.546875 44.28125 53.078125 
" id="DejaVuSans-73"/>
     <path d="M 9.421875 75.984375 
L 18.40625 75.984375 
L 18.40625 0 
L 9.421875 0 
z
" id="DejaVuSans-6c"/>
     <path d="M 34.28125 27.484375 
Q 23.390625 27.484375 19.1875 25 
Q 14.984375 22.515625 14.984375 16.5 
Q 14.984375 11.71875 18.140625 8.90625 
Q 21.296875 6.109375 26.703125 6.109375 
Q 34.1875 6.109375 38.703125 11.40625 
Q 43.21875 16.703125 43.21875 25.484375 
L 43.21875 27.484375 
z
M 52.203125 31.203125 
L 52.203125 0 
L 43.21875 0 
L 43.21875 8.296875 
Q 40.140625 3.328125 35.546875 0.953125 
Q 30.953125 -1.421875 24.3125 -1.421875 
Q 15.921875 -1.421875 10.953125 3.296875 
Q 6 8.015625 6 15.921875 
Q 6 25.140625 12.171875 29.828125 
Q 18.359375 34.515625 30.609375 34.515625 
L 43.21875 34.515625 
L 43.21875 35.40625 
Q 43.21875 41.609375 39.140625 45 
Q 35.0625 48.390625 27.6875 48.390625 
Q 23 48.390625 18.546875 47.265625 
Q 14.109375 46.140625 10.015625 43.890625 
L 10.015625 52.203125 
Q 14.9375 54.109375 19.578125 55.046875 
Q 24.21875 56 28.609375 56 
Q 40.484375 56 46.34375 49.84375 
Q 52.203125 43.703125 52.203125 31.203125 
" id="DejaVuSans-61"/>
     <path id="DejaVuSans-20"/>
     <path d="M 53.515625 70.515625 
L 53.515625 60.890625 
Q 47.90625 63.578125 42.921875 64.890625 
Q 37.9375 66.21875 33.296875 66.21875 
Q 25.25 66.21875 20.875 63.09375 
Q 16.5 59.96875 16.5 54.203125 
Q 16.5 49.359375 19.40625 46.890625 
Q 22.3125 44.4375 30.421875 42.921875 
L 36.375 41.703125 
Q 47.40625 39.59375 52.65625 34.296875 
Q 57.90625 29 57.90625 20.125 
Q 57.90625 9.515625 50.796875 4.046875 
Q 43.703125 -1.421875 29.984375 -1.421875 
Q 24.8125 -1.421875 18.96875 -0.25 
Q 13.140625 0.921875 6.890625 3.21875 
L 6.890625 13.375 
Q 12.890625 10.015625 18.65625 8.296875 
Q 24.421875 6.59375 29.984375 6.59375 
Q 38.421875 6.59375 43.015625 9.90625 
Q 47.609375 13.234375 47.609375 19.390625 
Q 47.609375 24.75 44.3125 27.78125 
Q 41.015625 30.8125 33.5 32.328125 
L 27.484375 33.5 
Q 16.453125 35.6875 11.515625 40.375 
Q 6.59375 45.0625 6.59375 53.421875 
Q 6.59375 63.09375 13.40625 68.65625 
Q 20.21875 74.21875 32.171875 74.21875 
Q 37.3125 74.21875 42.625 73.28125 
Q 47.953125 72.359375 53.515625 70.515625 
" id="DejaVuSans-53"/>
     <path d="M 54.890625 33.015625 
L 54.890625 0 
L 45.90625 0 
L 45.90625 32.71875 
Q 45.90625 40.484375 42.875 44.328125 
Q 39.84375 48.1875 33.796875 48.1875 
Q 26.515625 48.1875 22.3125 43.546875 
Q 18.109375 38.921875 18.109375 30.90625 
L 18.109375 0 
L 9.078125 0 
L 9.078125 54.6875 
L 18.109375 54.6875 
L 18.109375 46.1875 
Q 21.34375 51.125 25.703125 53.5625 
Q 30.078125 56 35.796875 56 
Q 45.21875 56 50.046875 50.171875 
Q 54.890625 44.34375 54.890625 33.015625 
" id="DejaVuSans-6e"/>
     <path d="M 18.3125 70.21875 
L 18.3125 54.6875 
L 36.8125 54.6875 
L 36.8125 47.703125 
L 18.3125 47.703125 
L 18.3125 18.015625 
Q 18.3125 11.328125 20.140625 9.421875 
Q 21.96875 7.515625 27.59375 7.515625 
L 36.8125 7.515625 
L 36.8125 0 
L 27.59375 0 
Q 17.1875 0 13.234375 3.875 
Q 9.28125 7.765625 9.28125 18.015625 
L 9.28125 47.703125 
L 2.6875 47.703125 
L 2.6875 54.6875 
L 9.28125 54.6875 
L 9.28125 70.21875 
z
" id="DejaVuSans-74"/>
     <path d="M 9.421875 54.6875 
L 18.40625 54.6875 
L 18.40625 0 
L 9.421875 0 
z
M 9.421875 75.984375 
L 18.40625 75.984375 
L 18.40625 64.59375 
L 9.421875 64.59375 
z
" id="DejaVuSans-69"/>
     <path d="M 52 44.1875 
Q 55.375 50.25 60.0625 53.125 
Q 64.75 56 71.09375 56 
Q 79.640625 56 84.28125 50.015625 
Q 88.921875 44.046875 88.921875 33.015625 
L 88.921875 0 
L 79.890625 0 
L 79.890625 32.71875 
Q 79.890625 40.578125 77.09375 44.375 
Q 74.3125 48.1875 68.609375 48.1875 
Q 61.625 48.1875 57.5625 43.546875 
Q 53.515625 38.921875 53.515625 30.90625 
L 53.515625 0 
L 44.484375 0 
L 44.484375 32.71875 
Q 44.484375 40.625 41.703125 44.40625 
Q 38.921875 48.1875 33.109375 48.1875 
Q 26.21875 48.1875 22.15625 43.53125 
Q 18.109375 38.875 18.109375 30.90625 
L 18.109375 0 
L 9.078125 0 
L 9.078125 54.6875 
L 18.109375 54.6875 
L 18.109375 46.1875 
Q 21.1875 51.21875 25.484375 53.609375 
Q 29.78125 56 35.6875 56 
Q 41.65625 56 45.828125 52.96875 
Q 50 49.953125 52 44.1875 
" id="DejaVuSans-6d"/>
    </defs>
    <g transform="translate(172.669688 28.56)scale(0.12 -0.12)">
     <use xlink:href="#DejaVuSans-54"/>
     <use x="60.818359" xlink:href="#DejaVuSans-65"/>
     <use x="122.341797" xlink:href="#DejaVuSans-73"/>
     <use x="174.441406" xlink:href="#DejaVuSans-6c"/>
     <use x="202.224609" xlink:href="#DejaVuSans-61"/>
     <use x="263.503906" xlink:href="#DejaVuSans-20"/>
     <use x="295.291016" xlink:href="#DejaVuSans-53"/>
     <use x="358.767578" xlink:href="#DejaVuSans-65"/>
     <use x="420.291016" xlink:href="#DejaVuSans-6e"/>
     <use x="483.669922" xlink:href="#DejaVuSans-74"/>
     <use x="522.878906" xlink:href="#DejaVuSans-69"/>
     <use x="550.662109" xlink:href="#DejaVuSans-6d"/>
     <use x="648.074219" xlink:href="#DejaVuSans-65"/>
     <use x="709.597656" xlink:href="#DejaVuSans-6e"/>
     <use x="772.976562" xlink:href="#DejaVuSans-74"/>
    </g>
   </g>
   <g id="legend_1">
    <g id="patch_7">
     <path d="M 61 225.4 
L 214.723437 225.4 
Q 216.723437 225.4 216.723437 223.4 
L 216.723437 180.365625 
Q 216.723437 178.365625 214.723437 178.365625 
L 61 178.365625 
Q 59 178.365625 59 180.365625 
L 59 223.4 
Q 59 225.4 61 225.4 
z
" style="fill:#ffffff;opacity:0.8;stroke:#cccccc;stroke-linejoin:miter;"/>
    </g>
    <g id="line2d_18">
     <path d="M 63 186.464062 
L 83 186.464062 
" style="fill:none;stroke:#1f77b4;stroke-linecap:square;stroke-width:1.5;"/>
    </g>
    <g id="line2d_19"/>
    <g id="text_16">
     <!-- factor=0.99, bin=5min -->
     <defs>
      <path d="M 37.109375 75.984375 
L 37.109375 68.5 
L 28.515625 68.5 
Q 23.6875 68.5 21.796875 66.546875 
Q 19.921875 64.59375 19.921875 59.515625 
L 19.921875 54.6875 
L 34.71875 54.6875 
L 34.71875 47.703125 
L 19.921875 47.703125 
L 19.921875 0 
L 10.890625 0 
L 10.890625 47.703125 
L 2.296875 47.703125 
L 2.296875 54.6875 
L 10.890625 54.6875 
L 10.890625 58.5 
Q 10.890625 67.625 15.140625 71.796875 
Q 19.390625 75.984375 28.609375 75.984375 
z
" id="DejaVuSans-66"/>
      <path d="M 48.78125 52.59375 
L 48.78125 44.1875 
Q 44.96875 46.296875 41.140625 47.34375 
Q 37.3125 48.390625 33.40625 48.390625 
Q 24.65625 48.390625 19.8125 42.84375 
Q 14.984375 37.3125 14.984375 27.296875 
Q 14.984375 17.28125 19.8125 11.734375 
Q 24.65625 6.203125 33.40625 6.203125 
Q 37.3125 6.203125 41.140625 7.25 
Q 44.96875 8.296875 48.78125 10.40625 
L 48.78125 2.09375 
Q 45.015625 0.34375 40.984375 -0.53125 
Q 36.96875 -1.421875 32.421875 -1.421875 
Q 20.0625 -1.421875 12.78125 6.34375 
Q 5.515625 14.109375 5.515625 27.296875 
Q 5.515625 40.671875 12.859375 48.328125 
Q 20.21875 56 33.015625 56 
Q 37.15625 56 41.109375 55.140625 
Q 45.0625 54.296875 48.78125 52.59375 
" id="DejaVuSans-63"/>
      <path d="M 30.609375 48.390625 
Q 23.390625 48.390625 19.1875 42.75 
Q 14.984375 37.109375 14.984375 27.296875 
Q 14.984375 17.484375 19.15625 11.84375 
Q 23.34375 6.203125 30.609375 6.203125 
Q 37.796875 6.203125 41.984375 11.859375 
Q 46.1875 17.53125 46.1875 27.296875 
Q 46.1875 37.015625 41.984375 42.703125 
Q 37.796875 48.390625 30.609375 48.390625 
M 30.609375 56 
Q 42.328125 56 49.015625 48.375 
Q 55.71875 40.765625 55.71875 27.296875 
Q 55.71875 13.875 49.015625 6.21875 
Q 42.328125 -1.421875 30.609375 -1.421875 
Q 18.84375 -1.421875 12.171875 6.21875 
Q 5.515625 13.875 5.515625 27.296875 
Q 5.515625 40.765625 12.171875 48.375 
Q 18.84375 56 30.609375 56 
" id="DejaVuSans-6f"/>
      <path d="M 41.109375 46.296875 
Q 39.59375 47.171875 37.8125 47.578125 
Q 36.03125 48 33.890625 48 
Q 26.265625 48 22.1875 43.046875 
Q 18.109375 38.09375 18.109375 28.8125 
L 18.109375 0 
L 9.078125 0 
L 9.078125 54.6875 
L 18.109375 54.6875 
L 18.109375 46.1875 
Q 20.953125 51.171875 25.484375 53.578125 
Q 30.03125 56 36.53125 56 
Q 37.453125 56 38.578125 55.875 
Q 39.703125 55.765625 41.0625 55.515625 
z
" id="DejaVuSans-72"/>
      <path d="M 10.59375 45.40625 
L 73.1875 45.40625 
L 73.1875 37.203125 
L 10.59375 37.203125 
z
M 10.59375 25.484375 
L 73.1875 25.484375 
L 73.1875 17.1875 
L 10.59375 17.1875 
z
" id="DejaVuSans-3d"/>
      <path d="M 10.984375 1.515625 
L 10.984375 10.5 
Q 14.703125 8.734375 18.5 7.8125 
Q 22.3125 6.890625 25.984375 6.890625 
Q 35.75 6.890625 40.890625 13.453125 
Q 46.046875 20.015625 46.78125 33.40625 
Q 43.953125 29.203125 39.59375 26.953125 
Q 35.25 24.703125 29.984375 24.703125 
Q 19.046875 24.703125 12.671875 31.3125 
Q 6.296875 37.9375 6.296875 49.421875 
Q 6.296875 60.640625 12.9375 67.421875 
Q 19.578125 74.21875 30.609375 74.21875 
Q 43.265625 74.21875 49.921875 64.515625 
Q 56.59375 54.828125 56.59375 36.375 
Q 56.59375 19.140625 48.40625 8.859375 
Q 40.234375 -1.421875 26.421875 -1.421875 
Q 22.703125 -1.421875 18.890625 -0.6875 
Q 15.09375 0.046875 10.984375 1.515625 
M 30.609375 32.421875 
Q 37.25 32.421875 41.125 36.953125 
Q 45.015625 41.5 45.015625 49.421875 
Q 45.015625 57.28125 41.125 61.84375 
Q 37.25 66.40625 30.609375 66.40625 
Q 23.96875 66.40625 20.09375 61.84375 
Q 16.21875 57.28125 16.21875 49.421875 
Q 16.21875 41.5 20.09375 36.953125 
Q 23.96875 32.421875 30.609375 32.421875 
" id="DejaVuSans-39"/>
      <path d="M 11.71875 12.40625 
L 22.015625 12.40625 
L 22.015625 4 
L 14.015625 -11.625 
L 7.71875 -11.625 
L 11.71875 4 
z
" id="DejaVuSans-2c"/>
      <path d="M 48.6875 27.296875 
Q 48.6875 37.203125 44.609375 42.84375 
Q 40.53125 48.484375 33.40625 48.484375 
Q 26.265625 48.484375 22.1875 42.84375 
Q 18.109375 37.203125 18.109375 27.296875 
Q 18.109375 17.390625 22.1875 11.75 
Q 26.265625 6.109375 33.40625 6.109375 
Q 40.53125 6.109375 44.609375 11.75 
Q 48.6875 17.390625 48.6875 27.296875 
M 18.109375 46.390625 
Q 20.953125 51.265625 25.265625 53.625 
Q 29.59375 56 35.59375 56 
Q 45.5625 56 51.78125 48.09375 
Q 58.015625 40.1875 58.015625 27.296875 
Q 58.015625 14.40625 51.78125 6.484375 
Q 45.5625 -1.421875 35.59375 -1.421875 
Q 29.59375 -1.421875 25.265625 0.953125 
Q 20.953125 3.328125 18.109375 8.203125 
L 18.109375 0 
L 9.078125 0 
L 9.078125 75.984375 
L 18.109375 75.984375 
z
" id="DejaVuSans-62"/>
     </defs>
     <g transform="translate(91 189.964062)scale(0.1 -0.1)">
      <use xlink:href="#DejaVuSans-66"/>
      <use x="35.205078" xlink:href="#DejaVuSans-61"/>
      <use x="96.484375" xlink:href="#DejaVuSans-63"/>
      <use x="151.464844" xlink:href="#DejaVuSans-74"/>
      <use x="190.673828" xlink:href="#DejaVuSans-6f"/>
      <use x="251.855469" xlink:href="#DejaVuSans-72"/>
      <use x="292.96875" xlink:href="#DejaVuSans-3d"/>
      <use x="376.757812" xlink:href="#DejaVuSans-30"/>
      <use x="440.380859" xlink:href="#DejaVuSans-2e"/>
      <use x="472.167969" xlink:href="#DejaVuSans-39"/>
      <use x="535.791016" xlink:href="#DejaVuSans-39"/>
      <use x="599.414062" xlink:href="#DejaVuSans-2c"/>
      <use x="631.201172" xlink:href="#DejaVuSans-20"/>
      <use x="662.988281" xlink:href="#DejaVuSans-62"/>
      <use x="726.464844" xlink:href="#DejaVuSans-69"/>
      <use x="754.248047" xlink:href="#DejaVuSans-6e"/>
      <use x="817.626953" xlink:href="#DejaVuSans-3d"/>
      <use x="901.416016" xlink:href="#DejaVuSans-35"/>
      <use x="965.039062" xlink:href="#DejaVuSans-6d"/>
      <use x="1062.451172" xlink:href="#DejaVuSans-69"/>
      <use x="1090.234375" xlink:href="#DejaVuSans-6e"/>
     </g>
    </g>
    <g id="line2d_20">
     <path d="M 63 201.142187 
L 83 201.142187 
" style="fill:none;stroke:#ff7f0e;stroke-linecap:square;stroke-width:1.5;"/>
    </g>
    <g id="line2d_21"/>
    <g id="text_17">
     <!-- factor=0.75, bin=20min -->
     <g transform="translate(91 204.642187)scale(0.1 -0.1)">
      <use xlink:href="#DejaVuSans-66"/>
      <use x="35.205078" xlink:href="#DejaVuSans-61"/>
      <use x="96.484375" xlink:href="#DejaVuSans-63"/>
      <use x="151.464844" xlink:href="#DejaVuSans-74"/>
      <use x="190.673828" xlink:href="#DejaVuSans-6f"/>
      <use x="251.855469" xlink:href="#DejaVuSans-72"/>
      <use x="292.96875" xlink:href="#DejaVuSans-3d"/>
      <use x="376.757812" xlink:href="#DejaVuSans-30"/>
      <use x="440.380859" xlink:href="#DejaVuSans-2e"/>
      <use x="472.167969" xlink:href="#DejaVuSans-37"/>
      <use x="535.791016" xlink:href="#DejaVuSans-35"/>
      <use x="599.414062" xlink:href="#DejaVuSans-2c"/>
      <use x="631.201172" xlink:href="#DejaVuSans-20"/>
      <use x="662.988281" xlink:href="#DejaVuSans-62"/>
      <use x="726.464844" xlink:href="#DejaVuSans-69"/>
      <use x="754.248047" xlink:href="#DejaVuSans-6e"/>
      <use x="817.626953" xlink:href="#DejaVuSans-3d"/>
      <use x="901.416016" xlink:href="#DejaVuSans-32"/>
      <use x="965.039062" xlink:href="#DejaVuSans-30"/>
      <use x="1028.662109" xlink:href="#DejaVuSans-6d"/>
      <use x="1126.074219" xlink:href="#DejaVuSans-69"/>
      <use x="1153.857422" xlink:href="#DejaVuSans-6e"/>
     </g>
    </g>
    <g id="line2d_22">
     <path d="M 63 215.820312 
L 83 215.820312 
" style="fill:none;stroke:#2ca02c;stroke-linecap:square;stroke-width:1.5;"/>
    </g>
    <g id="line2d_23"/>
    <g id="text_18">
     <!-- factor=0.99, bin=1min -->
     <g transform="translate(91 219.320312)scale(0.1 -0.1)">
      <use xlink:href="#DejaVuSans-66"/>
      <use x="35.205078" xlink:href="#DejaVuSans-61"/>
      <use x="96.484375" xlink:href="#DejaVuSans-63"/>
      <use x="151.464844" xlink:href="#DejaVuSans-74"/>
      <use x="190.673828" xlink:href="#DejaVuSans-6f"/>
      <use x="251.855469" xlink:href="#DejaVuSans-72"/>
      <use x="292.96875" xlink:href="#DejaVuSans-3d"/>
      <use x="376.757812" xlink:href="#DejaVuSans-30"/>
      <use x="440.380859" xlink:href="#DejaVuSans-2e"/>
      <use x="472.167969" xlink:href="#DejaVuSans-39"/>
      <use x="535.791016" xlink:href="#DejaVuSans-39"/>
      <use x="599.414062" xlink:href="#DejaVuSans-2c"/>
      <use x="631.201172" xlink:href="#DejaVuSans-20"/>
      <use x="662.988281" xlink:href="#DejaVuSans-62"/>
      <use x="726.464844" xlink:href="#DejaVuSans-69"/>
      <use x="754.248047" xlink:href="#DejaVuSans-6e"/>
      <use x="817.626953" xlink:href="#DejaVuSans-3d"/>
      <use x="901.416016" xlink:href="#DejaVuSans-31"/>
      <use x="965.039062" xlink:href="#DejaVuSans-6d"/>
      <use x="1062.451172" xlink:href="#DejaVuSans-69"/>
      <use x="1090.234375" xlink:href="#DejaVuSans-6e"/>
     </g>
    </g>
   </g>
  </g>
 </g>
 <defs>
  <clipPath id="p7b1a65fe05">
   <rect height="195.84" width="334.8" x="54" y="34.56"/>
  </clipPath>
 </defs>
</svg>
