<?xml version="1.0" encoding="UTF-8" standalone="no"?>
<!-- Created with Inkscape (http://www.inkscape.org/) -->

<svg
   xmlns:dc="http://purl.org/dc/elements/1.1/"
   xmlns:cc="http://creativecommons.org/ns#"
   xmlns:rdf="http://www.w3.org/1999/02/22-rdf-syntax-ns#"
   xmlns:svg="http://www.w3.org/2000/svg"
   xmlns="http://www.w3.org/2000/svg"
   xmlns:xlink="http://www.w3.org/1999/xlink"
   xmlns:sodipodi="http://sodipodi.sourceforge.net/DTD/sodipodi-0.dtd"
   xmlns:inkscape="http://www.inkscape.org/namespaces/inkscape"
   width="185mm"
   height="65mm"
   viewBox="0 0 185 65.000001"
   version="1.1"
   id="svg8"
   inkscape:version="0.92.1 r"
   sodipodi:docname="tweetfeels.svg">
  <defs
     id="defs2">
    <linearGradient
       inkscape:collect="always"
       id="linearGradient3793">
      <stop
         style="stop-color:#1d9af6;stop-opacity:1"
         offset="0"
         id="stop3789" />
      <stop
         style="stop-color:#f076d7;stop-opacity:1"
         offset="1"
         id="stop3791" />
    </linearGradient>
    <style
       id="style3688">.cls-1{fill:none;}.cls-2{fill:#1da1f2;}</style>
    <linearGradient
       inkscape:collect="always"
       xlink:href="#linearGradient3793"
       id="linearGradient3795"
       x1="291.64728"
       y1="184.28635"
       x2="85"
       y2="169.86"
       gradientUnits="userSpaceOnUse"
       gradientTransform="translate(-8.0000005,-78.740126)" />
  </defs>
  <sodipodi:namedview
     id="base"
     pagecolor="#ffffff"
     bordercolor="#666666"
     borderopacity="1.0"
     inkscape:pageopacity="0.0"
     inkscape:pageshadow="2"
     inkscape:zoom="1.7374502"
     inkscape:cx="229.20861"
     inkscape:cy="62.807814"
     inkscape:document-units="mm"
     inkscape:current-layer="layer1"
     showgrid="false"
     inkscape:window-width="2560"
     inkscape:window-height="1418"
     inkscape:window-x="0"
     inkscape:window-y="0"
     inkscape:window-maximized="0"
     fit-margin-top="-20"
     fit-margin-left="0"
     fit-margin-right="80"
     fit-margin-bottom="-20"
     showguides="true"
     inkscape:guide-bbox="true" />
  <metadata
     id="metadata5">
    <rdf:RDF>
      <cc:Work
         rdf:about="">
        <dc:format>image/svg+xml</dc:format>
        <dc:type
           rdf:resource="http://purl.org/dc/dcmitype/StillImage" />
        <dc:title />
      </cc:Work>
    </rdf:RDF>
  </metadata>
  <g
     inkscape:label="Layer 1"
     inkscape:groupmode="layer"
     id="layer1"
     transform="translate(-4.382293,-113.82218)">
    <text
       xml:space="preserve"
       style="font-style:normal;font-variant:normal;font-weight:normal;font-stretch:normal;font-size:10.58333302px;line-height:125%;font-family:sans-serif;-inkscape-font-specification:sans-serif;letter-spacing:0px;word-spacing:0px;fill:#000000;fill-opacity:1;stroke:none;stroke-width:0.26458332px;stroke-linecap:butt;stroke-linejoin:miter;stroke-opacity:1"
       x="27.214285"
       y="33.550594"
       id="text3686"><tspan
         sodipodi:role="line"
         id="tspan3684"
         x="27.214285"
         y="43.206089"
         style="font-style:normal;font-variant:normal;font-weight:normal;font-stretch:normal;font-family:sans-serif;-inkscape-font-specification:sans-serif;stroke-width:0.26458332px" /></text>
    <g
       id="g3706"
       transform="matrix(0.26458333,0,0,0.26458333,2.2656262,92.988855)">
      <rect
         id="rect3694"
         height="400"
         width="400"
         class="cls-1"
         x="0"
         y="0"
         style="fill:none" />
      <path
         style="fill:url(#linearGradient3795);fill-opacity:1"
         d="M 240.94531 19.71875 A 51.339999 51.339999 0 0 0 190.10938 82.660156 A 145.62 145.62 0 0 1 84.400391 29.070312 A 51.329999 51.329999 0 0 0 100.2793 97.539062 A 50.909999 50.909999 0 0 1 77 91.119141 L 77 91.769531 A 51.309999 51.309999 0 0 0 118.15039 142.05078 A 51.209999 51.209999 0 0 1 94.990234 142.92969 A 51.349999 51.349999 0 0 0 142.91016 178.55078 A 102.92 102.92 0 0 1 79.210938 200.55078 A 104.41 104.41 0 0 1 67 199.81055 A 145.21 145.21 0 0 0 145.61914 222.81055 L 145.61914 222.84961 C 239.95914 222.84961 291.56055 144.69016 291.56055 76.910156 C 291.56055 74.690156 291.56016 72.479297 291.41016 70.279297 A 104.36 104.36 0 0 0 317 43.730469 A 102.38 102.38 0 0 1 287.53906 51.800781 A 51.469999 51.469999 0 0 0 310.08984 23.429688 A 102.79 102.79 0 0 1 277.51953 35.878906 A 51.339999 51.339999 0 0 0 240.94531 19.71875 z M 232.14648 100.69727 C 240.01399 100.69727 242.69932 104.47053 247.30469 109.93164 C 251.91006 104.47053 254.59734 100.69727 262.46484 100.69727 C 270.90802 100.69727 276.47266 106.45525 276.47266 115.09375 C 276.47266 120.15768 274.26673 125.81722 269.18164 130.98047 L 247.30469 153.51953 L 225.42969 130.98047 C 220.34459 125.81722 218.13867 120.15768 218.13867 115.09375 C 218.13867 106.45525 223.70331 100.69727 232.14648 100.69727 z "
         transform="translate(8.0000006,78.740127)"
         id="path3696" />
    </g>
    <flowRoot
       xml:space="preserve"
       id="flowRoot4602"
       style="font-style:normal;font-variant:normal;font-weight:normal;font-stretch:normal;font-size:40px;line-height:125%;font-family:sans-serif;-inkscape-font-specification:sans-serif;letter-spacing:0px;word-spacing:0px;fill:#000000;fill-opacity:1;stroke:none;stroke-width:1px;stroke-linecap:butt;stroke-linejoin:miter;stroke-opacity:1"
       transform="scale(0.26458333)"><flowRegion
         id="flowRegion4604"
         style="font-style:normal;font-variant:normal;font-weight:normal;font-stretch:normal;font-family:sans-serif;-inkscape-font-specification:sans-serif"><rect
           id="rect4606"
           width="279.14468"
           height="150.22014"
           x="370.65811"
           y="496.3147"
           style="font-style:normal;font-variant:normal;font-weight:normal;font-stretch:normal;font-family:sans-serif;-inkscape-font-specification:sans-serif" /></flowRegion><flowPara
         id="flowPara4608" /></flowRoot>    <g
       aria-label="j"
       transform="scale(0.98299642,1.0172977)"
       style="font-style:normal;font-variant:normal;font-weight:normal;font-stretch:normal;font-size:25.82460594px;line-height:125%;font-family:'Modern Pictograms';-inkscape-font-specification:'Modern Pictograms';letter-spacing:0px;word-spacing:0px;fill:#ffffff;fill-opacity:1;stroke:none;stroke-width:0.64561504px;stroke-linecap:butt;stroke-linejoin:miter;stroke-opacity:1"
       id="text4616" />
  </g>
  <g
     inkscape:groupmode="layer"
     id="layer2"
     inkscape:label="Layer 2"
     style="display:inline"
     transform="translate(-4.382293,-113.82218)">
    <g
       aria-label="tweetfeels"
       style="font-style:normal;font-variant:normal;font-weight:normal;font-stretch:normal;font-size:9.19475746px;line-height:125%;font-family:'Modern Pictograms';-inkscape-font-specification:'Modern Pictograms';letter-spacing:0px;word-spacing:0px;fill:#000000;fill-opacity:1;stroke:none;stroke-width:0.22986892px;stroke-linecap:butt;stroke-linejoin:miter;stroke-opacity:1"
       id="text4624">
      <path
         d="m 85.406764,153.02661 q -2.684869,0 -2.684869,-2.42742 v -5.70075 h -1.305656 q -0.147116,0 -0.257453,-0.0919 -0.09195,-0.11033 -0.09195,-0.25745 0,-0.18389 0.165505,-0.31262 l 2.500974,-2.44581 q 0.165506,-0.1655 0.312622,-0.1655 0.147116,0 0.239064,0.11034 0.110337,0.11033 0.110337,0.25745 v 1.47116 h 2.078015 q 0.312622,0 0.514906,0.20228 0.202285,0.20229 0.202285,0.51491 0,0.29423 -0.202285,0.51491 -0.202284,0.20228 -0.514906,0.20228 h -2.078015 v 5.55364 q 0,0.71719 0.331011,0.91947 0.349401,0.1839 0.864307,0.1839 0.36779,0 0.735581,-0.11034 0.07356,-0.0184 0.147116,-0.0368 0.09195,-0.0184 0.220674,-0.0184 0.257453,0 0.459738,0.20229 0.202285,0.18389 0.202285,0.45973 0,0.42296 -0.422959,0.64364 -0.717191,0.33101 -1.52633,0.33101 z"
         style="font-style:normal;font-variant:normal;font-weight:normal;font-stretch:normal;font-size:18.38951492px;font-family:'Varela Round';-inkscape-font-specification:'Varela Round';stroke-width:0.22986892px"
         id="path4785" />
      <path
         d="m 91.897401,152.93466 q -0.367791,0 -0.662023,-0.22067 -0.294232,-0.22068 -0.404569,-0.55169 l -2.611311,-7.65004 q -0.05517,-0.1655 -0.05517,-0.31262 0,-0.3494 0.239064,-0.58846 0.239063,-0.23907 0.588464,-0.23907 0.257453,0 0.459738,0.14712 0.220674,0.12872 0.294232,0.3494 l 2.151574,7.07996 2.133183,-6.91446 q 0.09195,-0.29423 0.331012,-0.47812 0.257453,-0.1839 0.570075,-0.1839 0.312621,0 0.551685,0.1839 0.257453,0.18389 0.349401,0.47812 l 2.133184,6.91446 2.151569,-7.07996 q 0.0736,-0.22068 0.27585,-0.3494 0.22067,-0.14712 0.47812,-0.14712 0.3494,0 0.58847,0.23907 0.23906,0.23906 0.23906,0.58846 0,0.14712 -0.0552,0.31262 l -2.611308,7.65004 q -0.110337,0.33101 -0.404569,0.55169 -0.294232,0.22067 -0.662022,0.22067 -0.367791,0 -0.662023,-0.22067 -0.294232,-0.22068 -0.422959,-0.57008 l -1.949288,-6.08693 -1.949289,6.08693 q -0.128727,0.3494 -0.422959,0.57008 -0.294232,0.22067 -0.662022,0.22067 z"
         style="font-style:normal;font-variant:normal;font-weight:normal;font-stretch:normal;font-size:18.38951492px;font-family:'Varela Round';-inkscape-font-specification:'Varela Round';stroke-width:0.22986892px"
         id="path4787" />
      <path
         d="m 107.73365,153.02661 q -2.24352,0 -3.5124,-1.26888 -1.25049,-1.28727 -1.25049,-3.60434 0,-1.30566 0.47813,-2.40903 0.47813,-1.10337 1.47116,-1.78378 0.99304,-0.68042 2.44581,-0.68042 1.36082,0 2.35385,0.64364 0.99304,0.62524 1.50795,1.69183 0.5149,1.04821 0.5149,2.29869 0,0.3494 -0.23906,0.58847 -0.22068,0.23906 -0.60686,0.23906 h -6.23404 q 0.14711,1.28727 0.95625,2.00446 0.80914,0.71719 2.26191,0.71719 0.77236,0 1.34244,-0.14712 0.58846,-0.14711 1.14015,-0.42296 0.14711,-0.0735 0.33101,-0.0735 0.29423,0 0.51491,0.20228 0.22067,0.20229 0.22067,0.51491 0,0.40457 -0.47813,0.68041 -0.71719,0.40457 -1.41599,0.60685 -0.6988,0.20229 -1.80217,0.20229 z m 2.35386,-5.64558 q -0.0552,-0.90109 -0.47813,-1.50794 -0.40457,-0.60686 -1.01143,-0.8827 -0.60685,-0.29423 -1.23209,-0.29423 -0.62525,0 -1.2321,0.29423 -0.60685,0.27584 -1.01142,0.8827 -0.40457,0.60685 -0.45974,1.50794 z"
         style="font-style:normal;font-variant:normal;font-weight:normal;font-stretch:normal;font-size:18.38951492px;font-family:'Varela Round';-inkscape-font-specification:'Varela Round';stroke-width:0.22986892px"
         id="path4789" />
      <path
         d="m 118.14958,153.02661 q -2.24352,0 -3.51239,-1.26888 -1.25049,-1.28727 -1.25049,-3.60434 0,-1.30566 0.47813,-2.40903 0.47812,-1.10337 1.47116,-1.78378 0.99303,-0.68042 2.4458,-0.68042 1.36083,0 2.35386,0.64364 0.99303,0.62524 1.50794,1.69183 0.51491,1.04821 0.51491,2.29869 0,0.3494 -0.23907,0.58847 -0.22067,0.23906 -0.60685,0.23906 h -6.23405 q 0.14712,1.28727 0.95626,2.00446 0.80914,0.71719 2.26191,0.71719 0.77236,0 1.34243,-0.14712 0.58847,-0.14711 1.14015,-0.42296 0.14712,-0.0735 0.33101,-0.0735 0.29424,0 0.51491,0.20228 0.22068,0.20229 0.22068,0.51491 0,0.40457 -0.47813,0.68041 -0.71719,0.40457 -1.41599,0.60685 -0.69881,0.20229 -1.80218,0.20229 z m 2.35386,-5.64558 q -0.0552,-0.90109 -0.47813,-1.50794 -0.40457,-0.60686 -1.01142,-0.8827 -0.60685,-0.29423 -1.2321,-0.29423 -0.62524,0 -1.2321,0.29423 -0.60685,0.27584 -1.01142,0.8827 -0.40457,0.60685 -0.45974,1.50794 z"
         style="font-style:normal;font-variant:normal;font-weight:normal;font-stretch:normal;font-size:18.38951492px;font-family:'Varela Round';-inkscape-font-specification:'Varela Round';stroke-width:0.22986892px"
         id="path4791" />
      <path
         d="m 127.60926,153.02661 q -2.68487,0 -2.68487,-2.42742 v -5.70075 h -1.30565 q -0.14712,0 -0.25745,-0.0919 -0.0919,-0.11033 -0.0919,-0.25745 0,-0.18389 0.1655,-0.31262 l 2.50098,-2.44581 q 0.1655,-0.1655 0.31262,-0.1655 0.14712,0 0.23906,0.11034 0.11034,0.11033 0.11034,0.25745 v 1.47116 h 2.07802 q 0.31262,0 0.5149,0.20228 0.20229,0.20229 0.20229,0.51491 0,0.29423 -0.20229,0.51491 -0.20228,0.20228 -0.5149,0.20228 h -2.07802 v 5.55364 q 0,0.71719 0.33101,0.91947 0.3494,0.1839 0.86431,0.1839 0.36779,0 0.73558,-0.11034 0.0736,-0.0184 0.14712,-0.0368 0.0919,-0.0184 0.22067,-0.0184 0.25745,0 0.45974,0.20229 0.20228,0.18389 0.20228,0.45973 0,0.42296 -0.42296,0.64364 -0.71719,0.33101 -1.52633,0.33101 z"
         style="font-style:normal;font-variant:normal;font-weight:normal;font-stretch:normal;font-size:18.38951492px;font-family:'Varela Round';-inkscape-font-specification:'Varela Round';stroke-width:0.22986892px"
         id="path4793" />
      <path
         d="m 132.93878,152.93466 q -0.3494,0 -0.58847,-0.23906 -0.23906,-0.23907 -0.23906,-0.58847 v -7.20869 h -1.08498 q -0.29424,0 -0.51491,-0.20228 -0.20228,-0.22068 -0.20228,-0.51491 0,-0.31262 0.20228,-0.51491 0.22067,-0.20228 0.51491,-0.20228 h 1.08498 v -1.06659 q 0,-1.10337 0.38618,-1.80217 0.40457,-0.7172 1.02981,-1.02982 0.64363,-0.33101 1.34244,-0.33101 0.8643,0 1.59988,0.36779 0.1839,0.0919 0.29424,0.27584 0.12872,0.16551 0.12872,0.36779 0,0.27585 -0.20228,0.49652 -0.20229,0.20229 -0.47813,0.20229 -0.20228,0 -0.42296,-0.0552 -0.44135,-0.0552 -0.49652,-0.0552 -0.75397,0 -1.14015,0.3494 -0.36779,0.3494 -0.36779,1.26888 v 1.01142 h 2.29869 q 0.31263,0 0.51491,0.20228 0.20228,0.20229 0.20228,0.51491 0,0.29423 -0.20228,0.51491 -0.20228,0.20228 -0.51491,0.20228 h -2.29869 v 7.20869 q 0,0.3494 -0.25745,0.58847 -0.23906,0.23906 -0.58846,0.23906 z"
         style="font-style:normal;font-variant:normal;font-weight:normal;font-stretch:normal;font-size:18.38951492px;font-family:'Varela Round';-inkscape-font-specification:'Varela Round';stroke-width:0.22986892px"
         id="path4795" />
      <path
         d="m 142.10624,153.02661 q -2.24352,0 -3.5124,-1.26888 -1.25049,-1.28727 -1.25049,-3.60434 0,-1.30566 0.47813,-2.40903 0.47813,-1.10337 1.47116,-1.78378 0.99303,-0.68042 2.44581,-0.68042 1.36082,0 2.35385,0.64364 0.99304,0.62524 1.50794,1.69183 0.51491,1.04821 0.51491,2.29869 0,0.3494 -0.23906,0.58847 -0.22068,0.23906 -0.60686,0.23906 h -6.23404 q 0.14711,1.28727 0.95625,2.00446 0.80914,0.71719 2.26191,0.71719 0.77236,0 1.34244,-0.14712 0.58846,-0.14711 1.14015,-0.42296 0.14711,-0.0735 0.33101,-0.0735 0.29423,0 0.5149,0.20228 0.22068,0.20229 0.22068,0.51491 0,0.40457 -0.47813,0.68041 -0.71719,0.40457 -1.41599,0.60685 -0.6988,0.20229 -1.80217,0.20229 z m 2.35385,-5.64558 q -0.0552,-0.90109 -0.47812,-1.50794 -0.40457,-0.60686 -1.01143,-0.8827 -0.60685,-0.29423 -1.23209,-0.29423 -0.62525,0 -1.2321,0.29423 -0.60686,0.27584 -1.01142,0.8827 -0.40457,0.60685 -0.45974,1.50794 z"
         style="font-style:normal;font-variant:normal;font-weight:normal;font-stretch:normal;font-size:18.38951492px;font-family:'Varela Round';-inkscape-font-specification:'Varela Round';stroke-width:0.22986892px"
         id="path4797" />
      <path
         d="m 152.52218,153.02661 q -2.24353,0 -3.5124,-1.26888 -1.25049,-1.28727 -1.25049,-3.60434 0,-1.30566 0.47813,-2.40903 0.47813,-1.10337 1.47116,-1.78378 0.99303,-0.68042 2.44581,-0.68042 1.36082,0 2.35385,0.64364 0.99304,0.62524 1.50794,1.69183 0.51491,1.04821 0.51491,2.29869 0,0.3494 -0.23906,0.58847 -0.22068,0.23906 -0.60686,0.23906 h -6.23404 q 0.14711,1.28727 0.95625,2.00446 0.80914,0.71719 2.26191,0.71719 0.77236,0 1.34244,-0.14712 0.58846,-0.14711 1.14015,-0.42296 0.14711,-0.0735 0.33101,-0.0735 0.29423,0 0.5149,0.20228 0.22068,0.20229 0.22068,0.51491 0,0.40457 -0.47813,0.68041 -0.71719,0.40457 -1.41599,0.60685 -0.6988,0.20229 -1.80217,0.20229 z m 2.35385,-5.64558 q -0.0552,-0.90109 -0.47812,-1.50794 -0.40457,-0.60686 -1.01143,-0.8827 -0.60685,-0.29423 -1.23209,-0.29423 -0.62525,0 -1.2321,0.29423 -0.60686,0.27584 -1.01143,0.8827 -0.40456,0.60685 -0.45973,1.50794 z"
         style="font-style:normal;font-variant:normal;font-weight:normal;font-stretch:normal;font-size:18.38951492px;font-family:'Varela Round';-inkscape-font-specification:'Varela Round';stroke-width:0.22986892px"
         id="path4799" />
      <path
         d="m 159.57283,152.93466 q -0.3494,0 -0.58847,-0.23906 -0.23906,-0.23907 -0.23906,-0.58847 v -11.93479 q 0,-0.3494 0.23906,-0.58847 0.23907,-0.25745 0.58847,-0.25745 0.36779,0 0.60685,0.23906 0.23906,0.23907 0.23906,0.60686 v 11.93479 q 0,0.3494 -0.25745,0.58847 -0.23906,0.23906 -0.58846,0.23906 z"
         style="font-style:normal;font-variant:normal;font-weight:normal;font-stretch:normal;font-size:18.38951492px;font-family:'Varela Round';-inkscape-font-specification:'Varela Round';stroke-width:0.22986892px"
         id="path4801" />
      <path
         d="m 166.34103,153.02661 q -1.83895,0 -3.34689,-0.82753 -0.31262,-0.22067 -0.31262,-0.60685 0,-0.29424 0.20228,-0.51491 0.20229,-0.22068 0.51491,-0.22068 0.1655,0 0.33101,0.0736 0.58846,0.25746 1.17693,0.40457 0.58846,0.14712 1.32404,0.14712 2.04124,0 2.04124,-1.30566 0,-0.42296 -0.47813,-0.64363 -0.45974,-0.22067 -1.52633,-0.49652 -1.08498,-0.25745 -1.80217,-0.53329 -0.6988,-0.27585 -1.21371,-0.82753 -0.49652,-0.57008 -0.49652,-1.48955 0,-1.28727 0.91948,-2.09641 0.93787,-0.80914 2.66648,-0.80914 1.41599,0 2.66648,0.45974 0.25745,0.0736 0.38618,0.27585 0.14712,0.20228 0.14712,0.42295 0,0.29424 -0.22068,0.51491 -0.20228,0.22067 -0.5149,0.22067 -0.0919,0 -0.23907,-0.0368 -1.06659,-0.33102 -2.0964,-0.33102 -0.99304,0 -1.56311,0.36779 -0.55169,0.34941 -0.55169,0.91948 0,0.55169 0.51491,0.80914 0.51491,0.25745 1.59989,0.49652 1.08498,0.27584 1.76539,0.55168 0.68041,0.25745 1.15854,0.82753 0.49652,0.57007 0.49652,1.52633 0,1.17693 -0.93787,1.94929 -0.91947,0.77236 -2.61131,0.77236 z"
         style="font-style:normal;font-variant:normal;font-weight:normal;font-stretch:normal;font-size:18.38951492px;font-family:'Varela Round';-inkscape-font-specification:'Varela Round';stroke-width:0.22986892px"
         id="path4803" />
    </g>
  </g>
</svg>
